<?xml version="1.0" standalone="no"?>
<!DOCTYPE svg PUBLIC "-//W3C//DTD SVG 1.1//EN" "http://www.w3.org/Graphics/SVG/1.1/DTD/svg11.dtd" >
<svg xmlns="http://www.w3.org/2000/svg">
<metadata></metadata>
<defs>
<font id="sinkin_sans400_regular" horiz-adv-x="1443" >
<font-face units-per-em="2048" ascent="1659" descent="-389" />
<missing-glyph horiz-adv-x="634" />
<glyph horiz-adv-x="0" />
<glyph unicode="&#xd;" horiz-adv-x="2048" />
<glyph horiz-adv-x="0" />
<glyph horiz-adv-x="0" />
<glyph unicode="&#x9;" horiz-adv-x="2048" />
<glyph unicode="&#xa;" horiz-adv-x="2048" />
<glyph horiz-adv-x="2048" />
<glyph horiz-adv-x="2048" />
<glyph horiz-adv-x="2048" />
<glyph horiz-adv-x="2048" />
<glyph horiz-adv-x="2048" />
<glyph horiz-adv-x="2048" />
<glyph horiz-adv-x="2048" />
<glyph unicode=" "  horiz-adv-x="634" />
<glyph unicode="&#x09;" horiz-adv-x="634" />
<glyph unicode="&#xa0;" horiz-adv-x="634" />
<glyph unicode="!" horiz-adv-x="595" d="M143 150q0 74 39 120.5t115 46.5q78 0 117 -45.5t39 -121.5t-40 -123t-116 -47t-115 47t-39 123zM180 1659h236l-51 -1223h-134z" />
<glyph unicode="&#x22;" horiz-adv-x="804" d="M113 1720h211l-52 -612h-108zM481 1720h211l-51 -612h-109z" />
<glyph unicode="#" horiz-adv-x="1462" d="M61 430v184h263l-5 21l101 389l16 20h-217v185h262l-4 20l105 410h172l-105 -410l-14 -20h399l-4 20l105 410h172l-105 -410l-14 -20h213v-185h-264l6 -20l-99 -389l-14 -21h213v-184h-262l4 -20l-104 -410h-172l104 410l18 20h-403l4 -20l-104 -410h-172l104 410l19 20 h-218zM477 614h400l-5 21l101 389l16 20h-405l6 -20l-98 -389z" />
<glyph unicode="$" horiz-adv-x="1478" d="M113 231l149 142q100 -92 190.5 -140.5t194.5 -62.5q4 0 13.5 -1t13.5 -1l-10 20v480l10 18q-4 2 -11.5 3t-11.5 3q-18 4 -32.5 8.5t-20.5 6.5q-100 29 -182 62.5t-139.5 79.5t-89 107.5t-31.5 145.5q0 74 29.5 142.5t90 123.5t152.5 92t217 47h14.5t14.5 2l-10 19v190 h163v-192l-10 -21q6 0 16.5 -1t14.5 -1q139 -16 250.5 -74.5t197.5 -154.5l-147 -139q-57 70 -130 116.5t-171 65.5q-4 0 -14.5 1t-16.5 1l10 -19v-438l-10 -16q4 -2 14.5 -4t14.5 -4q29 -8 50.5 -13.5t31.5 -9.5q111 -29 187.5 -72t125.5 -96t71.5 -114t22.5 -127 q0 -74 -25.5 -145t-84 -129t-150.5 -97t-227 -51h-31l10 -19v-190h-163v188l10 21h-14.5t-14.5 2q-154 14 -292 73.5t-240 171.5zM352 1110q0 -76 66.5 -123t228.5 -94q4 -2 12.5 -4t12.5 -4l-8 22v396l10 22q-4 -2 -14.5 -2h-14.5q-152 -16 -222.5 -77.5t-70.5 -135.5z M817 168q6 0 16.5 1t14.5 1q150 18 219.5 77.5t69.5 145.5q0 72 -60.5 136.5t-208.5 105.5l-22 6l-27 6l8 -18v-441z" />
<glyph unicode="%" horiz-adv-x="1830" d="M61 1212q0 98 22.5 184.5t68 149t113 99t155.5 36.5t155.5 -36.5t112.5 -99t67.5 -149t22.5 -184.5t-22.5 -182t-66.5 -145.5t-111.5 -96t-157.5 -34.5t-157.5 34.5t-112 96t-67 145.5t-22.5 182zM231 1212q0 -137 44 -214.5t145 -77.5q98 0 143 75.5t45 216.5 q0 137 -42 219t-146 82q-102 0 -145.5 -79.5t-43.5 -221.5zM537 -20l593 1699h173l-594 -1699h-172zM1053 436q0 98 23.5 184.5t68.5 148.5t111.5 99t154.5 37q90 0 157.5 -37t111.5 -99t66.5 -148.5t22.5 -184.5t-22.5 -182t-66.5 -145.5t-111.5 -96.5t-157.5 -35 t-157.5 35t-111.5 96.5t-66.5 145.5t-22.5 182zM1223 436q0 -135 45 -214t143 -79t143 76t45 217q0 137 -40.5 220t-147.5 83q-102 0 -145 -80.5t-43 -222.5z" />
<glyph unicode="&#x26;" horiz-adv-x="1536" d="M113 426q0 82 32.5 154.5t89 133t131 110.5t156.5 91l-22 9q-37 43 -69 81.5t-55.5 79.5t-36.5 89.5t-13 107.5q0 82 30.5 153.5t85 125t126 84t153.5 30.5t155.5 -30.5t127 -84t85 -125t31.5 -153.5q0 -80 -25.5 -142.5t-70.5 -112.5t-108.5 -91t-137.5 -78l21 -10 q4 -6 33.5 -39t71.5 -82t90 -104.5t90 -102.5t72 -82t34 -39l6 -20q20 29 32.5 81t6.5 89h197v-21q0 -35 -9.5 -73.5t-25 -77.5t-36 -75t-44.5 -62l16 -7l203 -233h-236l-92 106l-2 19q-80 -74 -206 -112t-277 -38q-133 0 -244.5 30t-192.5 88.5t-127 141t-46 191.5z M313 426q0 -68 31 -118t85 -82.5t129 -49t165 -16.5q119 0 208 25.5t152 80.5l-20 8l-428 492l-4 20q-55 -31 -111.5 -64.5t-102.5 -75.5t-75 -95t-29 -125zM506 1276q0 -43 16.5 -80t40 -69.5t51 -63.5t50.5 -59l6 -23q57 29 107 56.5t86 62.5t56.5 78t20.5 102 q0 43 -17.5 82t-46 68.5t-67.5 46t-84 16.5q-47 0 -87 -16.5t-68.5 -46t-46 -69.5t-17.5 -85z" />
<glyph unicode="'" horiz-adv-x="436" d="M113 1720h211l-52 -612h-108z" />
<glyph unicode="(" horiz-adv-x="563" d="M82 733q0 295 74.5 569.5t228.5 555.5h158q-135 -274 -198.5 -542.5t-63.5 -555.5q0 -299 60.5 -587t201.5 -564h-158q-80 147 -137.5 286.5t-94 277.5t-54 276.5t-17.5 283.5z" />
<glyph unicode=")" horiz-adv-x="563" d="M20 -391q141 276 202 564t61 587q0 287 -63.5 555t-199.5 543h158q154 -281 228.5 -555.5t74.5 -569.5q0 -145 -17.5 -283.5t-54 -276.5t-95 -277.5t-138.5 -286.5h-156z" />
<glyph unicode="*" horiz-adv-x="1175" d="M113 1221l364 63l-301 215l86 109l277 -246l-21 369h139l-20 -371l276 248l86 -111l-301 -213l365 -63l-31 -138l-352 103l174 -324l-125 -61l-141 342l-144 -342l-125 61l179 322l-355 -99z" />
<glyph unicode="+" horiz-adv-x="1382" d="M184 737v185h426l-10 20v436h184v-436l-10 -20h424v-185h-424l10 -20v-434h-184v434l10 20h-426z" />
<glyph unicode="," horiz-adv-x="579" d="M123 150q0 74 39 120.5t114 46.5q78 0 119 -45.5t41 -121.5q0 -33 -6 -58.5t-16 -48.5l-170 -393l-121 49l113 262l26 21q-66 0 -102.5 48t-36.5 120z" />
<glyph unicode="-" horiz-adv-x="808" d="M61 573v185h687v-185h-687z" />
<glyph unicode="." horiz-adv-x="575" d="M123 150q0 74 39 120.5t114 46.5q78 0 117 -45.5t39 -121.5t-40 -123t-116 -47t-114.5 47t-38.5 123z" />
<glyph unicode="/" horiz-adv-x="479" d="M-143 -102l594 1863h172l-594 -1863h-172z" />
<glyph unicode="0" horiz-adv-x="1546" d="M113 819q0 188 44 347t128 272.5t206.5 177t280.5 63.5q160 0 284 -63.5t208 -177t127 -271.5t43 -348q0 -188 -42 -342.5t-125 -265.5t-207 -171t-288 -60q-162 0 -286 60t-206.5 171t-124.5 265.5t-42 342.5zM313 819q0 -137 23.5 -256t78 -208t142.5 -140t215 -51 t215 49t142.5 136t79 208t24.5 262q0 135 -21.5 258t-75 215t-141.5 147.5t-221 55.5q-127 0 -215 -53t-142.5 -145.5t-79 -215.5t-24.5 -262z" />
<glyph unicode="1" horiz-adv-x="821" d="M41 1255l405 404h170v-1659h-194v1262l14 168h-4l-102 -127l-168 -168z" />
<glyph unicode="2" horiz-adv-x="1394" d="M113 272q-2 88 22.5 173t75.5 160t131 134.5t188 98.5l224 77q180 63 253.5 136t73.5 174q0 51 -18.5 100t-61.5 87t-113.5 60.5t-174.5 22.5q-139 0 -247 -53t-183 -158l-144 143q104 123 248.5 187.5t327.5 64.5q152 0 259 -38.5t176 -103t100.5 -146.5t31.5 -166 q0 -158 -96 -278t-328 -202l-264 -92q-141 -49 -213 -150.5t-72 -248.5q0 -12 1 -24.5t1 -22.5l-20 -23h989v-184h-1163z" />
<glyph unicode="3" d="M113 231l145 144q78 -94 189.5 -152.5t259.5 -58.5q117 0 196.5 27.5t130.5 70.5t73.5 95.5t22.5 103.5q0 129 -94 212t-291 101q-27 2 -69.5 3t-83.5 3q-49 2 -103 2v179q53 0 103 2q41 2 81 2t62 4q102 12 172 40.5t112 67.5t59.5 85t17.5 89q0 47 -19.5 90t-64.5 77 t-120 54.5t-185 20.5q-141 0 -249 -53.5t-186 -145.5l-143 146q211 240 576 239q162 0 274.5 -36.5t183 -96t103 -136.5t32.5 -159q0 -127 -79.5 -219t-208.5 -149v-4q154 -55 237.5 -164t83.5 -254q0 -86 -33.5 -172t-109.5 -154.5t-195 -111.5t-286 -43 q-193 0 -339.5 65.5t-254.5 185.5z" />
<glyph unicode="4" horiz-adv-x="1474" d="M82 389v148l936 1122h160v-1065l-11 -21h226v-184h-226l11 -20v-369h-195v369l10 20h-911zM330 573h663l-10 21v582l12 186h-4l-102 -133l-477 -570l-82 -81v-5z" />
<glyph unicode="5" horiz-adv-x="1472" d="M113 276l137 138q92 -131 206.5 -191.5t264.5 -60.5q117 0 201 32.5t136 87t76.5 122t24.5 137.5q0 68 -23.5 136t-73.5 122.5t-130 88.5t-191 34q-285 0 -452 -205l-131 129l96 813h987v-184h-842l21 -21l-37 -287l-35 -172l4 -2q96 61 187.5 87t201.5 26 q158 0 273.5 -46t192.5 -125t115 -181t38 -213q0 -109 -37 -210.5t-113.5 -180t-198.5 -126t-290 -47.5q-102 0 -187 16.5t-159 52.5t-137.5 92.5t-124.5 137.5z" />
<glyph unicode="6" horiz-adv-x="1533" d="M113 819q4 205 58 366t146.5 270.5t217 166.5t270.5 57q190 0 321 -61.5t234 -183.5l-143 -146q-72 100 -174.5 153.5t-241.5 53.5q-117 0 -207 -47t-151.5 -130t-95.5 -200t-36 -254h4q74 111 203 176.5t283 65.5q158 0 274.5 -46t194.5 -125t115.5 -181t35.5 -213 q-2 -104 -41 -206t-116.5 -181.5t-197.5 -128t-286 -48.5t-293 60.5t-210.5 171t-125.5 266.5t-38 344zM354 539q-2 -66 23.5 -132.5t80 -121t135.5 -89t189 -34.5q104 0 186.5 33.5t138.5 87t86 122t32 136.5q0 63 -24.5 130.5t-77 123t-134.5 91.5t-192 36 q-106 0 -188.5 -35t-138.5 -90.5t-86 -124t-30 -133.5z" />
<glyph unicode="7" horiz-adv-x="1351" d="M61 1475v184h1229v-162l-450 -590q-51 -68 -86 -135t-56.5 -142t-31 -159t-9.5 -184v-287h-194v299q0 113 11 208t36 179t66.5 163t103.5 159l248 323l127 139v5h-994z" />
<glyph unicode="8" horiz-adv-x="1540" d="M113 469q0 145 83 249.5t236 160.5v4q-123 57 -191.5 143t-68.5 213q0 84 33 163t103.5 140.5t183 99t274.5 37.5t276.5 -37.5t187.5 -99t106.5 -140.5t33.5 -163q0 -127 -70.5 -212t-191.5 -144v-4q152 -59 235.5 -162t83.5 -248q0 -86 -38.5 -173t-120.5 -157.5 t-206 -114.5t-292 -44q-170 0 -293 44t-205 114.5t-120.5 157.5t-38.5 173zM313 473q0 -51 28 -105.5t84 -99.5t142 -74.5t203 -29.5t202 29.5t142 74.5t85 99.5t28 105.5q0 63 -32 121.5t-91.5 102.5t-144.5 71t-191 27t-190 -27t-142.5 -71t-90.5 -102t-32 -122zM373 1227 q0 -43 23.5 -91.5t71.5 -88t123 -66.5t177 -27t178 27t125 66.5t72.5 88t23.5 91.5q0 47 -20.5 94t-66.5 86t-121.5 62.5t-186.5 23.5t-186.5 -23.5t-123.5 -62.5t-68.5 -86t-20.5 -94z" />
<glyph unicode="9" horiz-adv-x="1533" d="M113 1116q2 104 39.5 205.5t116.5 181.5t199 128t286 48t293 -60t210.5 -171t124.5 -266.5t39 -343.5q-4 -207 -57 -367t-143.5 -269.5t-214 -167t-269.5 -57.5q-193 0 -331 61.5t-246 188.5l145 146q152 -211 432 -211q117 0 206 47t150.5 130t94.5 198.5t35 255.5h-4 q-74 -111 -203 -176.5t-283 -65.5q-158 0 -274.5 46t-194.5 125t-115.5 181.5t-35.5 212.5zM309 1116q0 -66 24.5 -133.5t77 -122.5t134.5 -90t192 -35q106 0 188.5 35t138.5 90t86 123.5t30 134.5q2 66 -24 132.5t-80 120.5t-135 89t-189 35q-104 0 -186.5 -34t-138.5 -87 t-86 -121.5t-32 -136.5z" />
<glyph unicode=":" horiz-adv-x="595" d="M143 150q0 74 39 120.5t115 46.5q78 0 117 -45.5t39 -121.5t-40 -123t-116 -47t-115 47t-39 123zM143 1079q0 74 39 121t115 47q78 0 117 -46t39 -122t-40 -123t-116 -47t-115 47.5t-39 122.5z" />
<glyph unicode=";" horiz-adv-x="600" d="M143 150q0 74 39 120.5t115 46.5q78 0 119 -45.5t41 -121.5q0 -33 -6.5 -58.5t-16.5 -48.5l-170 -393l-121 49l113 262l27 21q-66 0 -103 48t-37 120zM143 1079q0 74 39 121t115 47q78 0 117 -46t39 -122t-40 -123t-116 -47t-115 47.5t-39 122.5z" />
<glyph unicode="&#x3c;" horiz-adv-x="1036" d="M113 829l606 605l133 -134l-379 -378l-115 -93l115 -94l379 -377l-133 -133z" />
<glyph unicode="=" horiz-adv-x="1382" d="M184 512v184h1014v-184h-1014zM184 963v184h1014v-184h-1014z" />
<glyph unicode="&#x3e;" horiz-adv-x="1036" d="M184 358l381 379l113 92l-115 95l-379 376l133 134l607 -605l-607 -604z" />
<glyph unicode="?" horiz-adv-x="1308" d="M113 1425q104 123 241.5 188.5t319.5 65.5q125 0 222 -38.5t163.5 -100t101.5 -138.5t35 -153q0 -137 -79 -237.5t-199 -147.5l-78 -30q-63 -25 -101.5 -52.5t-59 -64.5t-27.5 -88t-7 -125v-68h-194v86q0 92 11 165t46 132.5t99.5 107.5t168.5 89l47 18q94 37 133 88.5 t39 126.5q0 43 -23.5 87t-66.5 79t-102.5 57.5t-128.5 22.5q-141 0 -238.5 -53t-173.5 -158zM393 150q0 74 39 120.5t115 46.5q78 0 116.5 -45.5t38.5 -121.5t-39.5 -123t-115.5 -47t-115 47t-39 123z" />
<glyph unicode="@" horiz-adv-x="2027" d="M143 858q0 180 73 340t197 277.5t285.5 186.5t339.5 69q172 0 326 -63.5t269.5 -174.5t183 -260.5t67.5 -323.5q0 -98 -33.5 -200.5t-95 -186.5t-149.5 -137t-197 -53q-78 0 -136.5 31.5t-92.5 97.5h-4q-63 -63 -142.5 -97t-161.5 -34q-86 0 -149.5 33.5t-105.5 90 t-62 129t-20 150.5q0 102 37.5 204.5t104 185.5t159 135.5t202.5 52.5q61 0 120 -30t93 -77h4l25 84h178l-135 -526q-10 -41 -17.5 -81t-7.5 -81q0 -51 39 -85t88 -34q80 0 136.5 42t93.5 104.5t54 137.5t17 142q0 139 -54 265t-146 220.5t-217 149.5t-267 55 q-154 0 -289 -59t-236 -161.5t-159.5 -237.5t-58.5 -289q0 -160 56.5 -300t156.5 -244.5t237.5 -165t299.5 -60.5q104 0 205.5 33.5t189.5 93.5l102 -101q-102 -74 -230 -116.5t-257 -42.5q-195 0 -363 67.5t-290.5 189.5t-192.5 288.5t-70 365.5zM717 760q0 -55 9 -105.5 t30.5 -87.5t58.5 -59.5t92 -22.5q74 0 128.5 41t90 104.5t53 140.5t17.5 147q0 45 -7 90t-27.5 78.5t-55.5 55t-90 21.5q-70 0 -125 -40t-94 -100t-59.5 -131t-20.5 -132z" />
<glyph unicode="A" horiz-adv-x="1726" d="M31 0l729 1659h207l729 -1659h-213l-176 399l10 21h-907l10 -21l-176 -399h-213zM498 604h731l-21 21l-293 665l-49 166h-4l-51 -166l-293 -665z" />
<glyph unicode="B" horiz-adv-x="1611" d="M184 0v1659h760q129 0 224.5 -37t156.5 -98.5t92 -142.5t31 -169q0 -117 -44 -196.5t-142 -138.5v-5q129 -57 193.5 -159.5t64.5 -241.5q0 -217 -141.5 -344t-415.5 -127h-779zM358 184h605q190 0 273 74t83 213q0 135 -86 213t-272 78h-603l21 -21v-536zM358 946h566 q88 0 150.5 20.5t100 57.5t55 85t17.5 103q0 262 -323 263h-566l21 -21v-487z" />
<glyph unicode="C" horiz-adv-x="1607" d="M113 819q0 188 53 347t156.5 272.5t255 177t348.5 63.5q211 0 363.5 -66.5t256.5 -187.5l-147 -141q-72 98 -186.5 154.5t-284.5 56.5q-164 0 -280 -53t-190.5 -145.5t-109.5 -215.5t-35 -262q0 -137 34 -256t107.5 -208t189.5 -140t282 -51q170 0 284.5 55t186.5 154 l145 -140q-104 -121 -258 -187t-360 -66q-201 0 -352.5 60t-254 171t-153.5 265.5t-51 342.5z" />
<glyph unicode="D" horiz-adv-x="1685" d="M184 0v1659h627q162 0 281.5 -34t204.5 -93t138.5 -139t84 -172.5t42 -193t11.5 -198.5q0 -100 -11.5 -199.5t-41 -191.5t-83 -172t-137 -139t-201.5 -93t-278 -34h-637zM358 184h443q184 0 296.5 52.5t174 141.5t81 205.5t19.5 245.5q0 127 -20.5 244t-83 206 t-177 142.5t-300.5 53.5h-433l21 -21v-1249z" />
<glyph unicode="E" horiz-adv-x="1546" d="M184 0v1659h1219v-184h-1045l21 -21v-512l-21 -20h947v-185h-947l21 -20v-512l-21 -21h1045v-184h-1219z" />
<glyph unicode="F" horiz-adv-x="1423" d="M184 0v1659h1178v-184h-1004l21 -21v-553l-21 -20h906v-185h-906l21 -20v-676h-195z" />
<glyph unicode="G" horiz-adv-x="1812" d="M113 813q0 197 55 357.5t159.5 273t257 174t347.5 61.5q88 0 178 -13t173 -42t156.5 -77t133.5 -117l-148 -142q-43 57 -99 97t-120.5 65t-133 35t-138.5 10q-158 0 -274.5 -48t-193.5 -136t-115 -215t-38 -283q0 -152 37 -271.5t112 -203.5t189.5 -129t270.5 -45 q119 0 218 42t168.5 115.5t108.5 175t39 222.5l21 20h-564v185h715v-924h-168v244h-4q-92 -125 -229 -194.5t-307 -69.5q-195 0 -344.5 58t-253 165.5t-156.5 262.5t-53 347z" />
<glyph unicode="H" horiz-adv-x="1730" d="M184 0v1659h195v-717l-21 -20h1014l-20 20v717h194v-1659h-194v717l20 20h-1014l21 -20v-717h-195zM358 737h1014h-1014z" />
<glyph unicode="I" horiz-adv-x="583" d="M195 0v1659h194v-1659h-194z" />
<glyph unicode="J" horiz-adv-x="1257" d="M0 233l139 138q31 -45 72 -83t88 -65.5t96 -43t99 -15.5q72 0 142.5 21.5t126.5 71.5t91 134t35 207v1061h194v-1051q0 -176 -48 -297t-130 -194.5t-189.5 -105t-223.5 -31.5q-147 0 -276.5 68.5t-215.5 184.5z" />
<glyph unicode="K" horiz-adv-x="1499" d="M184 0v1659h195v-1659h-195zM399 838l797 819h277l-816 -813v-4l842 -840h-285z" />
<glyph unicode="L" horiz-adv-x="1337" d="M184 0v1659h195v-1452l-21 -23h949v-184h-1123z" />
<glyph unicode="M" horiz-adv-x="1996" d="M184 0v1659h174l557 -1106l82 -195h4l82 195l555 1106h174v-1659h-194v1221h-4l-111 -265l-504 -979h-4l-510 992l-102 252h-4v-1221h-195z" />
<glyph unicode="N" horiz-adv-x="1730" d="M184 0v1659h178l865 -1147l121 -186h4v1333h194v-1659h-178l-858 1139l-127 194h-4v-1333h-195z" />
<glyph unicode="O" horiz-adv-x="1779" d="M113 819q0 188 50 347t147.5 272.5t242.5 177t336 63.5q193 0 338 -63.5t243.5 -177t147.5 -271.5t49 -348q0 -188 -51 -342.5t-149.5 -265.5t-244 -171t-333.5 -60q-190 0 -335.5 60t-244 171t-147.5 265.5t-49 342.5zM313 819q0 -137 33 -256t102.5 -208t179 -140 t263.5 -51q156 0 264.5 51t178 140t101 208t31.5 256q0 135 -31.5 258t-100 215t-178 147.5t-265.5 55.5t-265.5 -53t-179 -145.5t-101.5 -215.5t-32 -262z" />
<glyph unicode="P" horiz-adv-x="1581" d="M184 0v1659h758q131 0 233.5 -38t172 -105.5t105.5 -161.5t36 -207q0 -109 -36 -202t-105.5 -161.5t-172 -108.5t-235.5 -40h-582l21 -21v-614h-195zM358 819h582q178 0 263 93.5t85 234.5q0 147 -84 237.5t-262 90.5h-584l21 -21v-614z" />
<glyph unicode="Q" horiz-adv-x="1779" d="M113 829q0 188 50 345t147.5 268.5t242.5 174t336 62.5q193 0 338 -61.5t243.5 -174t147.5 -268t49 -346.5q0 -176 -42 -321.5t-128 -255.5l252 -254l-129 -131l-256 254q-92 -68 -211 -104.5t-264 -36.5q-190 0 -335.5 61t-244 174t-147.5 269.5t-49 344.5zM313 829 q0 -137 33 -257.5t102.5 -212t179 -143.5t263.5 -52q98 0 176 20.5t141 59.5l33 2l-266 264l131 131l260 -260l2 31q51 86 74.5 192t23.5 225q0 135 -31.5 256t-100 212.5t-178 144.5t-265.5 53t-265.5 -52t-179 -142.5t-101.5 -211t-32 -260.5z" />
<glyph unicode="R" horiz-adv-x="1611" d="M184 0v1659h727q113 0 214.5 -31t178 -91t120.5 -152.5t44 -215.5q0 -82 -26.5 -151.5t-71.5 -124.5t-105.5 -93t-127.5 -57v-4q59 -25 117.5 -80t99.5 -141l248 -518h-220l-206 436q-59 129 -158.5 188.5t-265.5 59.5h-394l21 -20v-664h-195zM358 868h531 q180 0 279.5 84t99.5 217q0 82 -28 140.5t-75 95.5t-112.5 53.5t-141.5 16.5h-553l21 -21v-565z" />
<glyph unicode="S" horiz-adv-x="1579" d="M102 250l154 143q131 -121 262 -175t289 -54q231 0 350 77.5t119 196.5q0 86 -76 159t-246 118q-14 4 -58 15t-94 25.5t-94 26t-59 15.5q-115 31 -207 68.5t-158.5 89t-102.5 119t-36 157.5q0 86 38 167t118 143.5t202 100t292 37.5q201 0 363.5 -66.5t271.5 -187.5 l-148 -141q-78 94 -199.5 152.5t-285.5 58.5q-117 0 -202 -21.5t-140.5 -56.5t-82 -81t-26.5 -97q0 -47 24.5 -85t74 -68.5t125 -58.5t178.5 -56q14 -4 52 -14.5t81 -22.5t81.5 -22.5t53.5 -14.5q123 -33 210 -79t143 -104.5t82 -124.5t26 -138q0 -86 -35 -171t-114 -152 t-205 -107.5t-308 -40.5q-100 0 -200.5 16t-192.5 50t-174 84t-146 120z" />
<glyph unicode="T" horiz-adv-x="1464" d="M41 1475v184h1382v-184h-604l10 -21v-1454h-194v1454l10 21h-604z" />
<glyph unicode="U" horiz-adv-x="1755" d="M174 760v899h195v-897q0 -139 26.5 -250t87 -187.5t157.5 -118.5t239 -42q139 0 235 42t156.5 118.5t88 187.5t27.5 250v897h195v-899q0 -381 -172 -580.5t-530 -199.5q-360 0 -532.5 197.5t-172.5 582.5z" />
<glyph unicode="V" horiz-adv-x="1681" d="M31 1659h219l541 -1290l51 -166h4l49 166l541 1290h215l-707 -1659h-207z" />
<glyph unicode="W" horiz-adv-x="2144" d="M51 1659h209l336 -1290l27 -166h4l28 166l340 1290h156l342 -1290l27 -166h4l26 166l338 1290h205l-442 -1659h-254l-291 1106l-31 197h-4l-31 -197l-290 -1106h-256z" />
<glyph unicode="X" horiz-adv-x="1564" d="M41 0l621 834l-615 825h246l379 -512l110 -172h4l109 172l381 512h242l-615 -828l621 -831h-246l-379 512l-113 180h-4l-116 -180l-381 -512h-244z" />
<glyph unicode="Y" horiz-adv-x="1640" d="M31 1659h245l431 -608l112 -191h4l111 191l432 608h244l-690 -963v-696h-197v696z" />
<glyph unicode="Z" horiz-adv-x="1607" d="M123 0v164l967 1167l139 139v5h-1086v184h1332v-162l-959 -1167l-143 -142v-4h1112v-184h-1362z" />
<glyph unicode="[" horiz-adv-x="571" d="M123 -389v2247h428v-150h-268v-1946h268v-151h-428z" />
<glyph unicode="\" horiz-adv-x="643" d="M-61 1761h172l594 -1863h-173z" />
<glyph unicode="]" horiz-adv-x="571" d="M20 -238h269v1946h-269v150h429v-2247h-429v151z" />
<glyph unicode="^" horiz-adv-x="1339" d="M154 850l442 809h147l443 -809h-195l-254 461l-65 143h-4l-66 -143l-254 -461h-194z" />
<glyph unicode="_" horiz-adv-x="1347" d="M-20 -195h1388v-174h-1388v174z" />
<glyph unicode="`" horiz-adv-x="1423" d="M465 1772l139 139l348 -406l-82 -82z" />
<glyph unicode="a" horiz-adv-x="1423" d="M113 375q0 100 38.5 170.5t105.5 118t152 74t176 38.5t183 15.5t170 3.5q35 0 80 -2t63 -7l-20 23v29q0 82 -28.5 138t-77 91t-113 49t-135.5 14q-53 0 -107.5 -6t-108 -21.5t-102.5 -40t-88 -61.5l-131 129q119 100 251 139.5t286 39.5q102 0 200.5 -22.5t174 -77 t121.5 -144.5t46 -225v-840h-188v115h-4q-86 -76 -195.5 -107t-222.5 -31q-98 0 -192.5 20.5t-168 67t-119.5 123t-46 187.5zM301 375q0 -66 33 -108t84 -66.5t110.5 -34.5t112.5 -10q49 0 121 8t138.5 32.5t113.5 67.5t47 113v227l20 19q-18 2 -59 4t-72 2q-57 0 -126.5 -1 t-141.5 -7.5t-140.5 -21.5t-121.5 -44t-86 -73t-33 -107z" />
<glyph unicode="b" horiz-adv-x="1490" d="M184 0v1720h189v-587h4q74 86 174 132t229 46q154 0 266.5 -50.5t186.5 -139.5t109.5 -213t35.5 -269q0 -143 -36.5 -264t-110.5 -209t-186.5 -137t-264.5 -49q-264 0 -403 170h-4v-150h-189zM356 639q0 -102 22.5 -189.5t73 -152t129 -101t193.5 -36.5q113 0 193 36.5 t129 101t71.5 152t22.5 189.5t-22.5 191.5t-73 156t-130 105t-192.5 38.5q-115 0 -193.5 -37.5t-128 -104t-72 -157t-22.5 -192.5z" />
<glyph unicode="c" horiz-adv-x="1265" d="M113 635q0 143 41 267t119.5 214t193.5 142.5t262 52.5q158 0 271.5 -45t187.5 -123l-133 -133q-53 57 -137 90q-77 30 -172 30h-17q-109 0 -188.5 -39.5t-133 -107.5t-80 -158t-26.5 -190q0 -96 23.5 -183t75 -151.5t132 -102.5t195.5 -38q106 0 191.5 33.5t152.5 105.5 l133 -131q-180 -188 -479 -188q-156 0 -271.5 50t-191.5 137t-112.5 207t-36.5 261z" />
<glyph unicode="d" horiz-adv-x="1490" d="M113 637q0 145 36.5 269t111.5 214t187.5 140.5t262.5 50.5q127 0 231.5 -49.5t171.5 -128.5h4v585h189v-1718h-189v150h-4q-68 -84 -169 -127t-234 -43q-152 0 -264.5 49t-186.5 136t-110.5 208t-36.5 264zM301 639q0 -102 22.5 -189.5t72.5 -152t129 -101t194 -36.5 q113 0 191.5 36.5t129 101t73 152t22.5 189.5t-22.5 192.5t-72 157t-128 104t-193.5 37.5q-113 0 -191.5 -38.5t-129 -105t-74 -156t-23.5 -191.5z" />
<glyph unicode="e" d="M113 635q0 147 41 272t119.5 214t193.5 139.5t260 50.5q154 0 266.5 -51.5t188 -141.5t112.5 -214t37 -269q0 -23 -1 -39t-3 -37h-1042l22 -20q25 -176 129.5 -277.5t300.5 -101.5q106 0 195.5 35.5t159.5 103.5l133 -131q-94 -92 -218 -140t-272 -48q-160 0 -277.5 50 t-194.5 137t-113.5 207t-36.5 261zM287 731h872l-22 21q-12 82 -42 151.5t-80 120.5t-122 78.5t-166 27.5q-96 0 -169 -28.5t-124 -79.5t-81.5 -121t-43.5 -149z" />
<glyph unicode="f" horiz-adv-x="843" d="M61 1118v172h164l-10 21v16q0 186 107.5 295t304.5 109q43 0 92 -9.5t84 -23.5v-176q-33 14 -85 23t-87 9q-117 0 -172.5 -61t-55.5 -170v-12l-10 -21h410v-172h-410l10 -20v-1098h-188v1098l10 20h-164z" />
<glyph unicode="g" horiz-adv-x="1490" d="M113 702q0 125 37.5 236t111.5 193.5t183.5 131t254.5 48.5q131 0 240 -47t174 -131h4v157h189v-1177q0 -262 -143.5 -407.5t-440.5 -145.5q-307 0 -526 174l135 135q74 -61 180 -96t211 -35q197 0 296 98t99 279v157h-4q-78 -90 -181.5 -130t-232.5 -40 q-147 0 -257.5 43t-183.5 122t-109.5 189.5t-36.5 245.5zM301 702q0 -190 101.5 -304.5t306.5 -114.5q111 0 191.5 31.5t132.5 87t77 132t25 168.5q0 94 -28 173t-82 135.5t-133 88t-183 31.5t-181 -32.5t-127.5 -90t-75 -135t-24.5 -170.5z" />
<glyph unicode="h" horiz-adv-x="1490" d="M184 0v1720h189v-592h4q72 88 181.5 135.5t232.5 47.5q135 0 234 -36t163.5 -100.5t96.5 -153.5t32 -198v-823h-189v793q0 72 -14 133t-54 107t-110.5 71.5t-181.5 25.5q-82 0 -153.5 -22.5t-126 -68.5t-85 -113.5t-30.5 -159.5v-766h-189z" />
<glyph unicode="i" horiz-adv-x="557" d="M156 1597q0 59 31.5 97.5t91.5 38.5q61 0 91.5 -38.5t30.5 -97.5t-31.5 -97t-90.5 -38q-61 0 -92 38t-31 97zM184 0v1290h189v-1290h-189z" />
<glyph unicode="j" horiz-adv-x="557" d="M-131 -227q37 -18 80 -26.5t84 -8.5q72 0 111.5 45t39.5 137v1370h189v-1382q0 -174 -86 -261t-250 -87q-45 0 -87 8t-81 26v179zM156 1597q0 59 31.5 97.5t91.5 38.5q61 0 91.5 -38.5t30.5 -97.5t-31.5 -97t-90.5 -38q-61 0 -92 38t-31 97z" />
<glyph unicode="k" horiz-adv-x="1300" d="M184 0v1720h189v-1720h-189zM393 664l613 626h266l-633 -628v-5l661 -657h-262z" />
<glyph unicode="l" horiz-adv-x="557" d="M184 0v1720h189v-1720h-189z" />
<glyph unicode="m" horiz-adv-x="2058" d="M184 0v1290h191v-162h2q49 82 138 132.5t196 50.5q127 0 220 -64.5t140 -161.5h4q61 100 163.5 163t223.5 63q422 0 422 -545l-2 -766h-188v717q0 88 -8.5 163.5t-36 131t-79.5 87t-143 31.5q-78 0 -134 -28.5t-93 -77.5t-54.5 -113.5t-17.5 -134.5v-776h-190v766 q0 80 -10 146.5t-39 115.5t-80 77t-135 28q-66 0 -120 -27t-94 -75t-62.5 -113.5t-22.5 -143.5v-774h-191z" />
<glyph unicode="n" horiz-adv-x="1490" d="M184 0v1290h189v-162h4q66 84 176.5 133.5t234.5 49.5q256 0 392.5 -126t136.5 -362v-823h-189v782q0 76 -14 140.5t-54 110.5t-110.5 71.5t-181.5 25.5q-82 0 -153.5 -22.5t-126 -68.5t-85 -113.5t-30.5 -159.5v-766h-189z" />
<glyph unicode="o" d="M113 645q0 143 37.5 266t113.5 211t190.5 138.5t266.5 50.5q154 0 267.5 -49.5t190 -137.5t114.5 -211t38 -268q0 -143 -39 -265t-115.5 -211t-190.5 -139t-265 -50q-152 0 -266.5 49t-190.5 138t-113.5 211t-37.5 267zM301 645q0 -102 24.5 -190t76 -153.5t131 -103.5 t190.5 -38t190.5 38t131 103.5t75 153.5t23.5 190t-24.5 190.5t-76 154t-131.5 103t-190 37.5q-111 0 -190.5 -36.5t-131 -102t-75 -154.5t-23.5 -192z" />
<glyph unicode="p" horiz-adv-x="1490" d="M184 -430v1720h189v-157h4q66 84 170 131t233 47q152 0 264.5 -50.5t186.5 -139.5t110.5 -211t36.5 -265q0 -145 -35.5 -268t-109.5 -211t-186.5 -137t-266.5 -49q-129 0 -227 39.5t-176 130.5h-4v-580h-189zM356 645q0 -102 22.5 -191t72 -155t128 -102.5t193.5 -36.5 q113 0 192.5 36.5t130 102.5t73 155t22.5 191t-22.5 190.5t-71.5 154t-129 103t-193 37.5q-115 0 -193.5 -37.5t-129 -103t-73 -155t-22.5 -189.5z" />
<glyph unicode="q" horiz-adv-x="1490" d="M113 645q0 143 36.5 265t110.5 211t186.5 139.5t264.5 50.5q131 0 234.5 -47t168.5 -131h4v157h189v-1720h-189v580h-4q-78 -90 -176 -130t-227 -40q-154 0 -266.5 49t-186.5 137t-109.5 211t-35.5 268zM301 645q0 -102 22.5 -191t72.5 -155t129 -102.5t194 -36.5 t193.5 36.5t128 102.5t72 155t22.5 191q0 100 -22.5 189.5t-73 155t-129.5 103t-191 37.5q-115 0 -194 -37.5t-129 -103t-72.5 -153.5t-22.5 -191z" />
<glyph unicode="r" horiz-adv-x="870" d="M184 0v1290h189v-223h4q27 59 72 103t99 74t116.5 45.5t123.5 15.5h41v-201h-61q-70 0 -140.5 -24.5t-127 -80t-92 -144.5t-35.5 -218v-637h-189z" />
<glyph unicode="s" horiz-adv-x="1300" d="M113 199l139 139q109 -98 204 -139t210 -41q172 0 251.5 55t79.5 133q0 31 -10 57.5t-35.5 49t-69.5 42t-110 37.5q-10 2 -44 12.5t-72 22t-70.5 20.5t-42.5 13q-86 25 -158 54.5t-124 70.5t-81.5 96.5t-29.5 128.5q0 70 30.5 135.5t93 115.5t158.5 80t225 30 q154 0 281 -52.5t221 -156.5l-139 -139q-66 80 -155 123.5t-208 43.5q-84 0 -144 -15t-98 -39.5t-56.5 -56.5t-18.5 -63q0 -59 63.5 -101t221.5 -85q10 -4 39.5 -12t63.5 -19.5t63.5 -20.5t39.5 -11q193 -53 275 -140.5t82 -212.5q0 -72 -29 -139.5t-90 -119.5t-159.5 -85 t-237.5 -33q-154 0 -302.5 51.5t-256.5 170.5z" />
<glyph unicode="t" horiz-adv-x="962" d="M61 1118v172h164l-10 21v205l188 102v-307l-10 -21h410v-172h-410l10 -20v-713q0 -115 47.5 -171t129.5 -56q68 0 122 22.5t107 73.5l133 -131q-174 -143 -373 -143q-162 0 -258 102t-96 295v721l10 20h-164z" />
<glyph unicode="u" horiz-adv-x="1474" d="M174 487v803h188v-792q0 -72 13.5 -133.5t51.5 -107.5t107.5 -71.5t180.5 -25.5q82 0 152.5 22.5t122.5 68.5t82 113.5t30 159.5v766h188v-1290h-188v162h-4q-78 -88 -178.5 -135t-225.5 -47q-137 0 -235.5 34.5t-162 101t-93 161t-29.5 210.5z" />
<glyph unicode="v" horiz-adv-x="1345" d="M20 1290h211l385 -923l56 -164h4l53 164l385 923h211l-549 -1290h-207z" />
<glyph unicode="w" horiz-adv-x="1828" d="M31 1290h200l271 -942l24 -145h4l21 145l285 942h157l285 -942l25 -145h4l20 145l275 942h196l-379 -1290h-221l-256 817l-24 164h-5l-26 -164l-258 -817h-221z" />
<glyph unicode="x" horiz-adv-x="1273" d="M41 0l481 649l-477 641h236l286 -395l70 -113h4l68 113l288 395h232l-475 -643l479 -647h-234l-288 395l-72 121h-4l-72 -121l-289 -395h-233z" />
<glyph unicode="y" horiz-adv-x="1355" d="M31 1290h211l401 -923l55 -164h4l54 164l358 923h211l-584 -1429q-57 -141 -153 -221t-219 -80q-145 0 -242 51v178q45 -25 102.5 -38t114.5 -13q86 0 148.5 66.5t113.5 197.5z" />
<glyph unicode="z" horiz-adv-x="1345" d="M123 0v150l723 845l115 111v4h-824v178h1080v-143l-736 -846l-116 -117v-4h858v-178h-1100z" />
<glyph unicode="{" horiz-adv-x="675" d="M82 637v197q84 16 116.5 67t32.5 133v484q0 63 9.5 121.5t36 105.5t72.5 78.5t118 42.5q16 2 48 4t63 2h77v-146q-86 0 -137 -10t-78.5 -32.5t-37 -58.5t-9.5 -87v-502q0 -57 -6 -101t-23.5 -79t-47 -64.5t-76.5 -56.5q55 -31 86.5 -59.5t46 -62t17.5 -77.5t3 -106v-498 q0 -51 9.5 -86.5t37 -58.5t78.5 -33t137 -10v-145h-77q-31 0 -63 1t-48 5q-72 8 -118 40.5t-72.5 80t-36 105.5t-9.5 122v465q0 84 -28.5 143.5t-120.5 75.5z" />
<glyph unicode="|" horiz-adv-x="643" d="M236 -102v1863h172v-1863h-172z" />
<glyph unicode="}" horiz-adv-x="675" d="M20 -256q86 0 137.5 10t79 33t37 58.5t9.5 86.5v498q0 61 3 105.5t17 78t46 62.5t87 59q-47 27 -77.5 56.5t-47 64.5t-22.5 79t-6 101v502q0 51 -9.5 87t-37 58.5t-79 32.5t-137.5 10v146h80q33 0 64 -2t47 -4q72 -10 118 -42t71.5 -79t34.5 -105.5t9 -121.5v-484 q0 -82 34 -133t116 -67v-197q-92 -16 -121 -75.5t-29 -143.5v-465q0 -63 -9 -121.5t-34.5 -106t-71.5 -80t-118 -40.5q-16 -4 -47 -5t-64 -1h-80v145z" />
<glyph unicode="~" horiz-adv-x="1181" d="M61 600q12 43 42 86t72 78t94.5 56.5t111.5 21.5q57 0 114.5 -27t113 -58.5t107.5 -58t101 -26.5q74 0 124 49t71 121l108 -107q-16 -51 -48 -95t-75 -77t-94 -51t-106 -18q-57 0 -113.5 26.5t-111 58t-107.5 58.5t-105 27q-66 0 -116.5 -47.5t-73.5 -122.5z" />
<glyph horiz-adv-x="2048" />
<glyph unicode="&#xa1;" horiz-adv-x="595" d="M143 1509q0 76 40 123t116 47t115 -47t39 -123q0 -74 -39 -121t-115 -47q-78 0 -117 46.5t-39 121.5zM180 0l51 1223h134l51 -1223h-236z" />
<glyph unicode="&#xa2;" horiz-adv-x="1265" d="M113 819q0 143 41 267t119.5 214.5t193.5 142.5t262 52h28.5t26.5 -4l-6 18l33 170h160l-37 -192l-14 -12q86 -20 153.5 -58.5t114.5 -89.5l-133 -133q-29 33 -75 59.5t-95 42.5l8 -20l-178 -914l-15 -18h27q106 0 191.5 34t152.5 105l133 -131q-180 -188 -479 -188h-57 l6 -14l-33 -170h-160l37 192l14 14q-109 29 -187.5 88.5t-130.5 142.5t-76.5 185.5t-24.5 216.5zM301 819q0 -76 14.5 -146.5t46 -130t83 -105.5t122.5 -70l-6 22l176 909l13 17h-21q-109 0 -188.5 -40t-133 -107.5t-80 -157.5t-26.5 -191z" />
<glyph unicode="&#xa3;" horiz-adv-x="1456" d="M113 0v174q70 35 123 77t82.5 102.5t34.5 147.5t-21 214l10 22h-195v183h148l-16 20q-18 68 -32 145.5t-14 131.5q0 125 43 213t117 143t172.5 80.5t208.5 25.5q88 0 168 -20.5t148.5 -56t125 -82t97.5 -95.5l-142 -139q-76 98 -176 153.5t-227 55.5q-74 0 -134.5 -14.5 t-105.5 -46t-69.5 -84t-24.5 -125.5q0 -25 3 -58.5t9.5 -71.5t13.5 -77t15 -76l-10 -22h487v-183h-438l16 -22q43 -215 -2 -341t-157 -186v-4h917v-184h-1175z" />
<glyph unicode="&#xa4;" horiz-adv-x="1239" d="M113 1210l125 121l141 -141q106 72 242 72q131 0 235 -72l145 141l125 -121l-141 -147q72 -119 72 -238q0 -129 -72 -241l139 -142l-123 -123l-145 142q-106 -70 -235 -70q-137 0 -242 72l-141 -141l-123 122l141 144q-72 106 -72 237q0 127 72 236zM356 825 q0 -111 76 -186q78 -78 189 -78q113 0 190 78q76 75 76 186q0 109 -78 191q-78 78 -188 78q-113 0 -189 -80q-76 -78 -76 -189z" />
<glyph unicode="&#xa5;" horiz-adv-x="1640" d="M51 1659h246l430 -608l92 -158h4l90 158l433 608h243l-530 -737l-25 -29l396 8v-180h-523l11 -21v-151l-11 -21h523v-180h-523l11 -18v-330h-195v328l10 20h-518v180h518l-10 21v151l10 21h-518v180h391l-24 21z" />
<glyph unicode="&#xa6;" horiz-adv-x="643" d="M236 -102v839h172v-839h-172zM236 922v839h172v-839h-172z" />
<glyph unicode="&#xa7;" horiz-adv-x="1294" d="M90 748q0 63 21.5 117.5t56.5 100.5t81 86t93 74q-45 45 -77 102.5t-32 123.5q0 80 36 140t95.5 101t139.5 62.5t168 21.5q137 0 267 -60.5t224 -156.5l-129 -129q-66 72 -163 122t-199 50q-96 0 -164 -39t-68 -116q0 -68 56.5 -122.5t142.5 -106.5t184.5 -103 t184.5 -113.5t142 -137.5t56 -173q0 -63 -18.5 -117.5t-49 -101.5t-72.5 -87t-89 -77q59 -61 91 -118.5t32 -145.5q0 -92 -35 -160t-94.5 -111t-136 -64.5t-160.5 -21.5q-68 0 -138.5 14.5t-137 40t-126 63.5t-108.5 87l129 129q70 -76 173 -114.5t208 -38.5 q92 0 154.5 38.5t62.5 139.5q0 31 -15.5 60.5t-31.5 51.5q-51 59 -126 108.5t-159 96.5t-168 95.5t-150.5 104.5t-108.5 125.5t-42 158.5zM283 766q0 -41 17 -77t45 -64.5t61.5 -53t66.5 -43.5l375 -221q27 25 55.5 52.5t53 59.5t40 67.5t15.5 72.5q0 43 -19.5 80 t-50.5 66.5t-67.5 54t-69.5 45.5l-350 213q-27 -23 -56.5 -51.5t-55.5 -60.5t-43 -67.5t-17 -72.5z" />
<glyph unicode="&#xa8;" horiz-adv-x="1423" d="M330 1585q0 59 31.5 97t93.5 38q59 0 91 -38t32 -97q0 -61 -32 -98t-91 -37q-61 0 -93 37t-32 98zM811 1585q0 59 31.5 97t93.5 38q59 0 91 -38t32 -97q0 -61 -32 -98t-91 -37q-61 0 -93 37t-32 98z" />
<glyph unicode="&#xa9;" horiz-adv-x="1943" d="M123 821q0 174 66.5 329t182 270.5t270.5 182t331 66.5q174 0 328.5 -66.5t270.5 -182t182.5 -270.5t66.5 -329q0 -176 -66.5 -330.5t-182.5 -270.5t-270.5 -183.5t-328.5 -67.5q-176 0 -331 67.5t-270.5 183.5t-182 270.5t-66.5 330.5zM283 821q0 -141 54 -270 t147.5 -226.5t219 -154.5t269.5 -57q141 0 267 57t219 154.5t147.5 226.5t54.5 270t-54.5 269.5t-148.5 225.5t-219 154.5t-266 57.5t-267 -57.5t-220.5 -154.5t-148.5 -225t-54 -270zM455 811q0 121 33.5 224.5t100 180t163 119.5t221.5 43q131 0 226 -37.5t161 -105.5 l-117 -117q-45 49 -114.5 77t-155.5 26q-90 0 -155.5 -33t-110.5 -89.5t-67 -130t-22 -157.5q0 -80 19.5 -151.5t61.5 -125t108.5 -85t161.5 -31.5q176 0 286 119l117 -115q-154 -162 -403 -162q-131 0 -227.5 42t-160 116t-95 175t-31.5 218z" />
<glyph unicode="&#xaa;" horiz-adv-x="931" d="M61 1061q0 104 57.5 160.5t140.5 84t178 32.5t169 5h41t45 -2l-16 23v18q0 88 -63.5 125t-155.5 37q-68 0 -139.5 -18.5t-124.5 -71.5l-99 100q86 72 173 98.5t190 26.5q68 0 133 -15t115.5 -52t82 -97.5t31.5 -150.5v-557h-143v76h-2q-57 -51 -123 -70.5t-137 -19.5 q-63 0 -127 13t-114 45t-81 83t-31 127zM203 1061q0 -39 19.5 -64.5t50 -41t68.5 -21.5t73 -6q33 0 79 5t85.5 20.5t68.5 41t29 66.5v133l16 20q-16 0 -41.5 1.5t-36.5 1.5h-60.5t-66.5 -3q-72 -4 -135 -18q-66 -16 -107.5 -47t-41.5 -88z" />
<glyph unicode="&#xab;" horiz-adv-x="1257" d="M113 522l413 414l127 -127l-186 -188l-121 -97v-4l121 -98l186 -186l-127 -127zM604 522l414 414l127 -127l-187 -188l-120 -97v-4l120 -98l187 -186l-127 -127z" />
<glyph unicode="&#xac;" horiz-adv-x="1193" d="M61 571v187h1072v-656h-189v449l21 20h-904z" />
<glyph unicode="&#xad;" horiz-adv-x="808" d="M61 573v185h687v-185h-687z" />
<glyph unicode="&#xae;" horiz-adv-x="1943" d="M123 819q0 176 66.5 331t182 270.5t269.5 182t330 66.5t330.5 -66.5t270.5 -182t182.5 -270.5t66.5 -331t-66.5 -330.5t-182.5 -269.5t-270.5 -182.5t-330.5 -67.5t-330 67.5t-269.5 182.5t-182 269.5t-66.5 330.5zM283 819q0 -141 54 -269t147.5 -225.5t219 -154.5 t267.5 -57q143 0 268 57t219 154.5t148.5 225.5t54.5 269t-54.5 270.5t-148.5 226.5t-220 154.5t-267 57.5t-266 -57.5t-219.5 -154.5t-148.5 -226t-54 -271zM588 332v975h426q66 0 126 -18.5t106 -55.5t73 -93.5t27 -131.5q0 -86 -43 -148.5t-109 -95.5q49 -39 80 -107 l156 -325h-179l-121 258q-29 63 -74.5 93t-129.5 30h-199l18 -19v-362h-157zM727 866h274q92 0 138.5 41.5t46.5 100.5q0 78 -47 111.5t-125 33.5h-287l18 -18v-250z" />
<glyph unicode="&#xaf;" horiz-adv-x="1452" d="M348 1520v137h809v-137h-809z" />
<glyph unicode="&#xb0;" horiz-adv-x="876" d="M61 1294q0 82 21.5 153t66 122t110 80.5t153.5 29.5t154.5 -28.5t110.5 -80.5t65.5 -123t21.5 -153t-22.5 -151.5t-66.5 -120.5t-109.5 -81t-151.5 -30q-88 0 -154.5 29t-111 80t-66 121.5t-21.5 152.5zM207 1294q0 -104 49 -171.5t158 -67.5t156.5 67.5t47.5 171.5 q0 106 -48 174t-156 68q-111 0 -159 -67.5t-48 -174.5z" />
<glyph unicode="&#xb1;" horiz-adv-x="1382" d="M184 143v185h1014v-185h-1014zM184 881v184h426l-10 20v437h184v-437l-10 -20h424v-184h-424l10 -21v-434h-184v434l10 21h-426z" />
<glyph unicode="&#xb2;" horiz-adv-x="862" d="M113 739v168q0 49 12 98.5t40 93.5t71 78.5t102 57.5l111 39q88 33 116.5 64.5t28.5 68.5q0 20 -7 39.5t-24.5 36t-47.5 27t-77 10.5q-63 0 -113.5 -28t-99.5 -95l-110 112q70 86 148.5 123t174.5 37q82 0 140.5 -22.5t96.5 -59.5t56.5 -84t18.5 -96q0 -92 -54.5 -160.5 t-177.5 -111.5l-131 -48q-61 -23 -92 -70.5t-31 -107.5v-4l-12 -16h496v-150h-635z" />
<glyph unicode="&#xb3;" horiz-adv-x="931" d="M113 887l110 110q49 -61 104.5 -92t133.5 -31q57 0 97 13.5t64.5 33t35 43t10.5 44.5q0 53 -43 92t-142 49q-14 2 -38.5 3t-49.5 1h-63v143q35 0 63 2q25 0 49.5 1t34.5 4q51 6 84 19t52.5 31.5t26.5 38t7 35.5t-8 35t-28.5 34t-57.5 25.5t-92 10.5q-76 0 -130 -28.5 t-102 -88.5l-110 113q72 80 155.5 115.5t188.5 35.5q88 0 151.5 -21.5t104.5 -56t60.5 -80.5t19.5 -98q0 -66 -37 -112.5t-92 -77.5v-4q66 -25 106.5 -80t40.5 -137q0 -51 -21.5 -102.5t-65.5 -91.5t-111.5 -65.5t-159.5 -25.5q-109 0 -193 39t-155 121z" />
<glyph unicode="&#xb4;" horiz-adv-x="1423" d="M506 1505l348 406l139 -139l-405 -349z" />
<glyph unicode="&#xb5;" horiz-adv-x="1472" d="M166 -430v1720h190v-772q0 -86 27 -152.5t74 -112.5t111.5 -69.5t138.5 -23.5q86 0 156.5 23.5t121.5 69.5t80 114.5t29 156.5v766h188v-1290h-188v152h-4q-78 -92 -179.5 -132t-205.5 -40t-188.5 39.5t-156.5 132.5h-4v-582h-190z" />
<glyph unicode="&#xb6;" horiz-adv-x="1269" d="M0 1147q0 104 40 197.5t109.5 163t163 110.5t199.5 41h614v-170h-129l11 -14v-1846h-174v1846l10 14h-166l10 -14v-1846h-176v992l12 14h-18q-106 0 -198.5 40t-161 109.5t-107.5 162.5t-39 200z" />
<glyph unicode="&#xb7;" horiz-adv-x="575" d="M123 831q0 74 39 121t114 47q78 0 117 -46t39 -122t-40 -122.5t-116 -46.5t-114.5 47t-38.5 122z" />
<glyph unicode="&#xb8;" horiz-adv-x="1265" d="M530 -303l127 127q47 47 51.5 71.5t-20.5 49.5l-63 63h129l55 -51q41 -39 43 -86t-45 -94l-178 -178z" />
<glyph unicode="&#xb9;" horiz-adv-x="577" d="M61 1421l238 238h125v-932h-152v637l13 84h-2l-50 -68l-63 -65z" />
<glyph unicode="&#xba;" horiz-adv-x="985" d="M61 1237q0 94 26 176t76 140.5t126 92t178 33.5t178 -32.5t127 -92t75.5 -140.5t24.5 -177t-25.5 -177t-76.5 -140.5t-127 -93t-176 -33.5q-102 0 -178 33.5t-126 93t-76 140.5t-26 177zM203 1237q0 -66 15 -122t47 -97t82 -64.5t120 -23.5t120 23.5t81.5 64.5t47 97 t15.5 122q0 131 -63.5 218t-200.5 87q-70 0 -120 -23.5t-82 -64.5t-47 -96t-15 -121z" />
<glyph unicode="&#xbb;" horiz-adv-x="1257" d="M113 236l186 186l121 98v4l-121 97l-186 188l127 127l413 -414l-413 -413zM604 236l187 186l120 98v4l-120 97l-187 188l127 127l414 -414l-414 -413z" />
<glyph unicode="&#xbc;" horiz-adv-x="1558" d="M61 1421l238 238h125v-932h-152v637l13 84h-2l-50 -68l-63 -65zM289 -20l594 1699h164l-596 -1699h-162zM717 205v119l491 606h138v-561l-9 -15h109v-149h-111l11 -10v-197h-154v197l8 10h-483zM907 352l293 2l-8 15v268l6 80h-4l-47 -78l-186 -229l-54 -54v-4z" />
<glyph unicode="&#xbd;" horiz-adv-x="1603" d="M61 1421l238 238h125v-932h-152v637l13 84h-2l-50 -68l-63 -65zM289 -20l594 1699h164l-596 -1699h-162zM856 -2v168q0 49 12.5 99t40 93t70.5 78t102 58l111 41q90 31 117.5 62.5t27.5 70.5q0 18 -7 38.5t-24.5 36t-47 25.5t-76.5 10q-63 0 -113.5 -27.5t-99.5 -95.5 l-111 115q70 84 148.5 122t175.5 38q80 0 138 -22.5t96 -59.5t56.5 -84t18.5 -96q0 -94 -53.5 -162t-175.5 -111l-132 -49q-61 -23 -91.5 -70t-30.5 -106v-6l-13 -14h496v-152h-635z" />
<glyph unicode="&#xbe;" horiz-adv-x="1884" d="M113 887l110 110q49 -61 104.5 -92t133.5 -31q57 0 97 13.5t64.5 33t35 43t10.5 44.5q0 53 -43 92t-142 49q-14 2 -38.5 3t-49.5 1h-63v143q35 0 63 2q25 0 49.5 1t34.5 4q51 6 84 19t52.5 31.5t26.5 38t7 35.5t-8 35t-28.5 34t-57.5 25.5t-92 10.5q-76 0 -130 -28.5 t-102 -88.5l-110 113q72 80 155.5 115.5t188.5 35.5q88 0 151.5 -21.5t104.5 -56t60.5 -80.5t19.5 -98q0 -66 -37 -112.5t-92 -77.5v-4q66 -25 106.5 -80t40.5 -137q0 -51 -21.5 -102.5t-65.5 -91.5t-111.5 -65.5t-159.5 -25.5q-109 0 -193 39t-155 121zM614 -20l596 1699 h162l-594 -1699h-164zM1044 205v119l490 606h137v-561l-8 -15h109v-149h-109l8 -10v-197h-153v197l8 10h-482zM1233 352l293 2l-8 15v268l6 80h-4l-45 -78l-187 -229l-55 -54v-4z" />
<glyph unicode="&#xbf;" horiz-adv-x="1308" d="M113 410q0 137 78.5 237.5t199.5 147.5l78 30q63 25 101 52.5t58.5 64.5t28 88t7.5 125v68h194v-86q0 -92 -11 -165t-46 -132.5t-99.5 -107.5t-169.5 -89l-47 -18q-94 -37 -133 -88.5t-39 -126.5q0 -43 23.5 -87t66.5 -79t102.5 -57.5t131.5 -22.5q139 0 236.5 53 t175.5 158l147 -142q-104 -123 -241.5 -188t-319.5 -65q-125 0 -222.5 38.5t-164 100t-101 138.5t-34.5 153zM606 1509q0 76 40 123t116 47t114.5 -47t38.5 -123q0 -74 -38.5 -121t-114.5 -47q-78 0 -117 46.5t-39 121.5z" />
<glyph unicode="&#xc0;" horiz-adv-x="1726" d="M31 0l729 1659h207l729 -1659h-213l-176 399l10 21h-907l10 -21l-176 -399h-213zM498 604h731l-21 21l-293 665l-49 166h-4l-51 -166l-293 -665zM602 2140l139 139l349 -405l-82 -82z" />
<glyph unicode="&#xc1;" horiz-adv-x="1726" d="M31 0l729 1659h207l729 -1659h-213l-176 399l10 21h-907l10 -21l-176 -399h-213zM498 604h731l-21 21l-293 665l-49 166h-4l-51 -166l-293 -665zM639 1872l348 405l139 -139l-405 -348z" />
<glyph unicode="&#xc2;" horiz-adv-x="1726" d="M31 0l729 1659h207l729 -1659h-213l-176 399l10 21h-907l10 -21l-176 -399h-213zM496 1866l366 364h4l367 -364l-80 -78l-289 231h-4l-285 -231zM498 604h731l-21 21l-293 665l-49 166h-4l-51 -166l-293 -665z" />
<glyph unicode="&#xc3;" horiz-adv-x="1726" d="M31 0l729 1659h207l729 -1659h-213l-176 399l10 21h-907l10 -21l-176 -399h-213zM385 1888q10 39 37 78t65.5 70.5t86 51t100.5 19.5t105 -23.5t102.5 -53t98.5 -53t91 -23.5q66 0 112 44t64 109l99 -96q-14 -47 -43 -87t-68 -68.5t-86 -46t-96 -17.5q-53 0 -104.5 23.5 t-100.5 53t-97.5 53.5t-95.5 24q-59 0 -105 -42t-67 -112zM498 604h731l-21 21l-293 665l-49 166h-4l-51 -166l-293 -665z" />
<glyph unicode="&#xc4;" horiz-adv-x="1726" d="M31 0l729 1659h207l729 -1659h-213l-176 399l10 21h-907l10 -21l-176 -399h-213zM498 604h731l-21 21l-293 665l-49 166h-4l-51 -166l-293 -665zM504 1978q0 59 31.5 97.5t91.5 38.5q61 0 92 -38.5t31 -97.5t-32 -97t-91 -38q-61 0 -92 38t-31 97zM985 1978q0 59 32 97.5 t91 38.5q61 0 92 -38.5t31 -97.5t-32 -97t-91 -38q-61 0 -92 38t-31 97z" />
<glyph unicode="&#xc5;" horiz-adv-x="1726" d="M31 0l729 1659h207l729 -1659h-213l-176 399l10 21h-907l10 -21l-176 -399h-213zM498 604h731l-21 21l-293 665l-49 166h-4l-51 -166l-293 -665zM643 2019q0 98 54.5 163t164.5 65q113 0 168 -65t55 -163t-55 -162.5t-166 -64.5q-113 0 -167 64.5t-54 162.5zM752 2019 q0 -53 26.5 -88t85.5 -35q57 0 85 35t28 88t-27.5 88t-85.5 35q-59 0 -85.5 -34.5t-26.5 -88.5z" />
<glyph unicode="&#xc6;" horiz-adv-x="2097" d="M31 0l729 1659h1194v-184h-746l13 -21v-512l-21 -20h674v-185h-674l21 -20v-512l-21 -21h754v-184h-926v399l10 21h-628l10 -21l-176 -399h-213zM498 604h553l-21 21v829l12 21h-155v-21l-369 -829z" />
<glyph unicode="&#xc7;" horiz-adv-x="1607" d="M113 819q0 188 53 347t156.5 272.5t255 177t348.5 63.5q211 0 363.5 -66.5t256.5 -187.5l-147 -141q-72 98 -186.5 154.5t-284.5 56.5q-164 0 -280 -53t-190.5 -145.5t-109.5 -215.5t-35 -262q0 -137 34 -256t107.5 -208t189.5 -140t282 -51q170 0 284.5 55t186.5 154 l145 -140q-96 -111 -232 -176t-317 -75l27 -25q41 -39 43 -86t-45 -94l-178 -178l-99 98l127 127q47 47 51.5 71.5t-20.5 49.5l-37 37q-184 8 -324.5 72.5t-234.5 174t-142 259t-48 331.5z" />
<glyph unicode="&#xc8;" horiz-adv-x="1546" d="M184 0v1659h1219v-184h-1045l21 -21v-512l-21 -20h947v-185h-947l21 -20v-512l-21 -21h1045v-184h-1219zM557 2140l139 139l348 -405l-81 -82z" />
<glyph unicode="&#xc9;" horiz-adv-x="1546" d="M184 0v1659h1219v-184h-1045l21 -21v-512l-21 -20h947v-185h-947l21 -20v-512l-21 -21h1045v-184h-1219zM629 1872l348 405l139 -139l-405 -348z" />
<glyph unicode="&#xca;" horiz-adv-x="1546" d="M184 0v1659h1219v-184h-1045l21 -21v-512l-21 -20h947v-185h-947l21 -20v-512l-21 -21h1045v-184h-1219zM428 1866l367 364h4l366 -364l-80 -78l-288 231h-4l-285 -231z" />
<glyph unicode="&#xcb;" horiz-adv-x="1546" d="M184 0v1659h1219v-184h-1045l21 -21v-512l-21 -20h947v-185h-947l21 -20v-512l-21 -21h1045v-184h-1219zM442 1978q0 59 32 97.5t91 38.5q61 0 92 -38.5t31 -97.5t-31.5 -97t-91.5 -38q-61 0 -92 38t-31 97zM924 1978q0 59 31.5 97.5t91.5 38.5q61 0 91.5 -38.5 t30.5 -97.5t-31.5 -97t-90.5 -38q-61 0 -92 38t-31 97z" />
<glyph unicode="&#xcc;" horiz-adv-x="583" d="M29 2140l139 139l348 -405l-82 -82zM195 0v1659h194v-1659h-194z" />
<glyph unicode="&#xcd;" horiz-adv-x="583" d="M66 1872l348 405l139 -139l-406 -348zM195 0v1659h194v-1659h-194z" />
<glyph unicode="&#xce;" horiz-adv-x="583" d="M-72 1866l367 364h4l367 -364l-80 -78l-289 231h-4l-285 -231zM195 0v1659h194v-1659h-194z" />
<glyph unicode="&#xcf;" horiz-adv-x="583" d="M-72 1978q0 59 32 97.5t91 38.5q61 0 92 -38.5t31 -97.5t-31.5 -97t-91.5 -38q-61 0 -92 38t-31 97zM195 0v1659h194v-1659h-194zM410 1978q0 59 31.5 97.5t90.5 38.5q61 0 92 -38.5t31 -97.5t-31.5 -97t-91.5 -38q-61 0 -91.5 38t-30.5 97z" />
<glyph unicode="&#xd0;" horiz-adv-x="1685" d="M51 737v185h144l-11 20v717h195h432q162 0 281.5 -34t204.5 -93t138.5 -139t84 -172.5t42 -193t11.5 -198.5q0 -100 -11.5 -199.5t-41 -191.5t-83 -172t-137 -139t-201.5 -93t-278 -34h-637v717l11 20h-144zM358 184h443q184 0 296.5 52.5t174 141.5t81 205.5t19.5 245.5 q0 127 -20.5 244t-83 206t-177 142.5t-300.5 53.5h-433l21 -21v-512l-10 -20h409v-185h-409l10 -20v-512z" />
<glyph unicode="&#xd1;" horiz-adv-x="1730" d="M184 0v1659h178l865 -1147l121 -186h4v1333h194v-1659h-178l-858 1139l-127 194h-4v-1333h-195zM391 1888q10 39 37 78t65.5 70.5t86 51t100.5 19.5t105.5 -23.5t102.5 -53t98 -53t91 -23.5q66 0 112 44t64 109l99 -96q-14 -47 -43 -87t-68 -68.5t-86 -46t-96 -17.5 q-53 0 -104.5 23.5t-100.5 53t-97 53.5t-95 24q-59 0 -105.5 -42t-67.5 -112z" />
<glyph unicode="&#xd2;" horiz-adv-x="1779" d="M113 819q0 188 50 347t147.5 272.5t242.5 177t336 63.5q193 0 338 -63.5t243.5 -177t147.5 -271.5t49 -348q0 -188 -51 -342.5t-149.5 -265.5t-244 -171t-333.5 -60q-190 0 -335.5 60t-244 171t-147.5 265.5t-49 342.5zM313 819q0 -137 33 -256t102.5 -208t179 -140 t263.5 -51q156 0 264.5 51t178 140t101 208t31.5 256q0 135 -31.5 258t-100 215t-178 147.5t-265.5 55.5t-265.5 -53t-179 -145.5t-101.5 -215.5t-32 -262zM625 2140l139 139l348 -405l-82 -82z" />
<glyph unicode="&#xd3;" horiz-adv-x="1779" d="M113 819q0 188 50 347t147.5 272.5t242.5 177t336 63.5q193 0 338 -63.5t243.5 -177t147.5 -271.5t49 -348q0 -188 -51 -342.5t-149.5 -265.5t-244 -171t-333.5 -60q-190 0 -335.5 60t-244 171t-147.5 265.5t-49 342.5zM313 819q0 -137 33 -256t102.5 -208t179 -140 t263.5 -51q156 0 264.5 51t178 140t101 208t31.5 256q0 135 -31.5 258t-100 215t-178 147.5t-265.5 55.5t-265.5 -53t-179 -145.5t-101.5 -215.5t-32 -262zM664 1872l348 405l139 -139l-406 -348z" />
<glyph unicode="&#xd4;" horiz-adv-x="1779" d="M113 819q0 188 50 347t147.5 272.5t242.5 177t336 63.5q193 0 338 -63.5t243.5 -177t147.5 -271.5t49 -348q0 -188 -51 -342.5t-149.5 -265.5t-244 -171t-333.5 -60q-190 0 -335.5 60t-244 171t-147.5 265.5t-49 342.5zM313 819q0 -137 33 -256t102.5 -208t179 -140 t263.5 -51q156 0 264.5 51t178 140t101 208t31.5 256q0 135 -31.5 258t-100 215t-178 147.5t-265.5 55.5t-265.5 -53t-179 -145.5t-101.5 -215.5t-32 -262zM528 1866l367 364h4l367 -364l-80 -78l-289 231h-4l-285 -231z" />
<glyph unicode="&#xd5;" horiz-adv-x="1779" d="M113 819q0 188 50 347t147.5 272.5t242.5 177t336 63.5q193 0 338 -63.5t243.5 -177t147.5 -271.5t49 -348q0 -188 -51 -342.5t-149.5 -265.5t-244 -171t-333.5 -60q-190 0 -335.5 60t-244 171t-147.5 265.5t-49 342.5zM313 819q0 -137 33 -256t102.5 -208t179 -140 t263.5 -51q156 0 264.5 51t178 140t101 208t31.5 256q0 135 -31.5 258t-100 215t-178 147.5t-265.5 55.5t-265.5 -53t-179 -145.5t-101.5 -215.5t-32 -262zM408 1888q10 39 36.5 78t65.5 70.5t86 51t100 19.5t105.5 -23.5t102.5 -53t98.5 -53t91.5 -23.5q66 0 111.5 44 t64.5 109l98 -96q-14 -47 -43 -87t-67.5 -68.5t-86 -46t-96.5 -17.5q-53 0 -104 23.5t-100.5 53t-97.5 53.5t-95 24q-59 0 -105.5 -42t-66.5 -112z" />
<glyph unicode="&#xd6;" horiz-adv-x="1779" d="M113 819q0 188 50 347t147.5 272.5t242.5 177t336 63.5q193 0 338 -63.5t243.5 -177t147.5 -271.5t49 -348q0 -188 -51 -342.5t-149.5 -265.5t-244 -171t-333.5 -60q-190 0 -335.5 60t-244 171t-147.5 265.5t-49 342.5zM313 819q0 -137 33 -256t102.5 -208t179 -140 t263.5 -51q156 0 264.5 51t178 140t101 208t31.5 256q0 135 -31.5 258t-100 215t-178 147.5t-265.5 55.5t-265.5 -53t-179 -145.5t-101.5 -215.5t-32 -262zM524 1978q0 59 32 97.5t91 38.5q61 0 92 -38.5t31 -97.5t-31.5 -97t-91.5 -38q-61 0 -92 38t-31 97zM1006 1978 q0 59 31.5 97.5t90.5 38.5q61 0 92 -38.5t31 -97.5t-31.5 -97t-91.5 -38q-61 0 -91.5 38t-30.5 97z" />
<glyph unicode="&#xd7;" horiz-adv-x="1241" d="M154 494l350 342l-19 6l-331 323l131 131l321 -329l8 -21l342 350l131 -131l-350 -342l19 -6l331 -323l-131 -132l-323 332l-6 19l-342 -351z" />
<glyph unicode="&#xd8;" horiz-adv-x="1779" d="M113 819q0 188 51 347t150.5 272.5t246 177t336.5 63.5q117 0 215 -25.5t180 -70.5v12l82 142l86 -49l-84 -148l-10 -4q152 -115 226.5 -298t74.5 -419q0 -188 -51 -342.5t-149.5 -265.5t-244 -171t-333.5 -60q-109 0 -204 20t-173 57l2 -10l-104 -182l-88 51l104 180 l10 4q-162 109 -242.5 293.5t-80.5 425.5zM313 819q0 -174 51.5 -316.5t170.5 -234.5v15l651 1130l12 4q-61 37 -138 57.5t-169 20.5q-156 0 -265.5 -53t-179 -145.5t-101.5 -215.5t-32 -262zM608 223q123 -59 283 -59q156 0 264.5 51t178 140t101 208t31.5 256 q0 164 -46 308.5t-152 238.5v-12l-650 -1125z" />
<glyph unicode="&#xd9;" horiz-adv-x="1755" d="M174 760v899h195v-897q0 -139 26.5 -250t87 -187.5t157.5 -118.5t239 -42q139 0 235 42t156.5 118.5t88 187.5t27.5 250v897h195v-899q0 -381 -172 -580.5t-530 -199.5q-360 0 -532.5 197.5t-172.5 582.5zM610 2140l140 139l348 -405l-82 -82z" />
<glyph unicode="&#xda;" horiz-adv-x="1755" d="M174 760v899h195v-897q0 -139 26.5 -250t87 -187.5t157.5 -118.5t239 -42q139 0 235 42t156.5 118.5t88 187.5t27.5 250v897h195v-899q0 -381 -172 -580.5t-530 -199.5q-360 0 -532.5 197.5t-172.5 582.5zM649 1872l348 405l140 -139l-406 -348z" />
<glyph unicode="&#xdb;" horiz-adv-x="1755" d="M174 760v899h195v-897q0 -139 26.5 -250t87 -187.5t157.5 -118.5t239 -42q139 0 235 42t156.5 118.5t88 187.5t27.5 250v897h195v-899q0 -381 -172 -580.5t-530 -199.5q-360 0 -532.5 197.5t-172.5 582.5zM512 1866l367 364h4l366 -364l-80 -78l-288 231h-4l-285 -231z " />
<glyph unicode="&#xdc;" horiz-adv-x="1755" d="M174 760v899h195v-897q0 -139 26.5 -250t87 -187.5t157.5 -118.5t239 -42q139 0 235 42t156.5 118.5t88 187.5t27.5 250v897h195v-899q0 -381 -172 -580.5t-530 -199.5q-360 0 -532.5 197.5t-172.5 582.5zM514 1978q0 59 32 97.5t91 38.5q61 0 92 -38.5t31 -97.5t-32 -97 t-91 -38q-61 0 -92 38t-31 97zM995 1978q0 59 32 97.5t91 38.5q61 0 92 -38.5t31 -97.5t-31.5 -97t-91.5 -38q-61 0 -92 38t-31 97z" />
<glyph unicode="&#xdd;" horiz-adv-x="1640" d="M31 1659h245l431 -608l112 -191h4l111 191l432 608h244l-690 -963v-696h-197v696zM598 1872l348 405l139 -139l-405 -348z" />
<glyph unicode="&#xde;" horiz-adv-x="1581" d="M184 0v1659h193v-299l-21 -21h586q131 0 233.5 -37.5t172 -105.5t105.5 -162t36 -207q0 -109 -36 -202t-105.5 -161.5t-172 -108.5t-235.5 -40h-582l21 -20v-295h-195zM358 500h582q178 0 263 93t85 234q0 147 -84 237.5t-262 90.5h-584l21 -20v-615z" />
<glyph unicode="&#xdf;" horiz-adv-x="1394" d="M184 0v1327q0 115 34 192.5t94.5 125t144.5 67t184 19.5q102 0 195.5 -33t165 -91.5t114.5 -140.5t43 -182q0 -117 -48 -197.5t-134 -130.5v-4q139 -49 222 -170.5t83 -289.5q0 -111 -38 -205t-105.5 -163t-159.5 -108t-199 -39q-90 0 -165.5 11.5t-135.5 31.5v185 q39 -14 72 -23.5t64.5 -15.5t67.5 -8t79 -2q74 0 134 23.5t104 66.5t69 104.5t25 138.5q0 76 -26 139.5t-71 109.5t-108.5 71t-138.5 25h-265v174l189 -2q135 0 215 68.5t80 199.5q0 68 -27 121t-72 88t-104 53t-127 18q-150 0 -208 -64.5t-58 -207.5v-1282h-189z" />
<glyph unicode="&#xe0;" horiz-adv-x="1423" d="M113 375q0 100 38.5 170.5t105.5 118t152 74t176 38.5t183 15.5t170 3.5q35 0 80 -2t63 -7l-20 23v29q0 82 -28.5 138t-77 91t-113 49t-135.5 14q-53 0 -107.5 -6t-108 -21.5t-102.5 -40t-88 -61.5l-131 129q119 100 251 139.5t286 39.5q102 0 200.5 -22.5t174 -77 t121.5 -144.5t46 -225v-840h-188v115h-4q-86 -76 -195.5 -107t-222.5 -31q-98 0 -192.5 20.5t-168 67t-119.5 123t-46 187.5zM301 375q0 -66 33 -108t84 -66.5t110.5 -34.5t112.5 -10q49 0 121 8t138.5 32.5t113.5 67.5t47 113v227l20 19q-18 2 -59 4t-72 2q-57 0 -126.5 -1 t-141.5 -7.5t-140.5 -21.5t-121.5 -44t-86 -73t-33 -107zM465 1772l139 139l348 -406l-82 -82z" />
<glyph unicode="&#xe1;" horiz-adv-x="1423" d="M113 375q0 100 38.5 170.5t105.5 118t152 74t176 38.5t183 15.5t170 3.5q35 0 80 -2t63 -7l-20 23v29q0 82 -28.5 138t-77 91t-113 49t-135.5 14q-53 0 -107.5 -6t-108 -21.5t-102.5 -40t-88 -61.5l-131 129q119 100 251 139.5t286 39.5q102 0 200.5 -22.5t174 -77 t121.5 -144.5t46 -225v-840h-188v115h-4q-86 -76 -195.5 -107t-222.5 -31q-98 0 -192.5 20.5t-168 67t-119.5 123t-46 187.5zM301 375q0 -66 33 -108t84 -66.5t110.5 -34.5t112.5 -10q49 0 121 8t138.5 32.5t113.5 67.5t47 113v227l20 19q-18 2 -59 4t-72 2q-57 0 -126.5 -1 t-141.5 -7.5t-140.5 -21.5t-121.5 -44t-86 -73t-33 -107zM506 1505l348 406l139 -139l-405 -349z" />
<glyph unicode="&#xe2;" horiz-adv-x="1423" d="M113 375q0 100 38.5 170.5t105.5 118t152 74t176 38.5t183 15.5t170 3.5q35 0 80 -2t63 -7l-20 23v29q0 82 -28.5 138t-77 91t-113 49t-135.5 14q-53 0 -107.5 -6t-108 -21.5t-102.5 -40t-88 -61.5l-131 129q119 100 251 139.5t286 39.5q102 0 200.5 -22.5t174 -77 t121.5 -144.5t46 -225v-840h-188v115h-4q-86 -76 -195.5 -107t-222.5 -31q-98 0 -192.5 20.5t-168 67t-119.5 123t-46 187.5zM301 375q0 -66 33 -108t84 -66.5t110.5 -34.5t112.5 -10q49 0 121 8t138.5 32.5t113.5 67.5t47 113v227l20 19q-18 2 -59 4t-72 2q-57 0 -126.5 -1 t-141.5 -7.5t-140.5 -21.5t-121.5 -44t-86 -73t-33 -107zM319 1505l367 365h4l367 -365l-80 -80l-287 234h-4l-287 -234z" />
<glyph unicode="&#xe3;" horiz-adv-x="1423" d="M113 375q0 100 38.5 170.5t105.5 118t152 74t176 38.5t183 15.5t170 3.5q35 0 80 -2t63 -7l-20 23v29q0 82 -28.5 138t-77 91t-113 49t-135.5 14q-53 0 -107.5 -6t-108 -21.5t-102.5 -40t-88 -61.5l-131 129q119 100 251 139.5t286 39.5q102 0 200.5 -22.5t174 -77 t121.5 -144.5t46 -225v-840h-188v115h-4q-86 -76 -195.5 -107t-222.5 -31q-98 0 -192.5 20.5t-168 67t-119.5 123t-46 187.5zM205 1556q12 39 38.5 78t64.5 71t86 51.5t102 19.5q53 0 105 -23.5t101.5 -53.5t97.5 -53.5t91 -23.5q66 0 113 44t63 110l100 -97 q-14 -47 -42.5 -87t-67.5 -68.5t-86 -46t-99 -17.5q-53 0 -103 23.5t-99 53.5t-97.5 53.5t-95.5 23.5q-59 0 -106 -42t-68 -114zM301 375q0 -66 33 -108t84 -66.5t110.5 -34.5t112.5 -10q49 0 121 8t138.5 32.5t113.5 67.5t47 113v227l20 19q-18 2 -59 4t-72 2 q-57 0 -126.5 -1t-141.5 -7.5t-140.5 -21.5t-121.5 -44t-86 -73t-33 -107z" />
<glyph unicode="&#xe4;" horiz-adv-x="1423" d="M113 375q0 100 38.5 170.5t105.5 118t152 74t176 38.5t183 15.5t170 3.5q35 0 80 -2t63 -7l-20 23v29q0 82 -28.5 138t-77 91t-113 49t-135.5 14q-53 0 -107.5 -6t-108 -21.5t-102.5 -40t-88 -61.5l-131 129q119 100 251 139.5t286 39.5q102 0 200.5 -22.5t174 -77 t121.5 -144.5t46 -225v-840h-188v115h-4q-86 -76 -195.5 -107t-222.5 -31q-98 0 -192.5 20.5t-168 67t-119.5 123t-46 187.5zM301 375q0 -66 33 -108t84 -66.5t110.5 -34.5t112.5 -10q49 0 121 8t138.5 32.5t113.5 67.5t47 113v227l20 19q-18 2 -59 4t-72 2q-57 0 -126.5 -1 t-141.5 -7.5t-140.5 -21.5t-121.5 -44t-86 -73t-33 -107zM330 1585q0 59 31.5 97t93.5 38q59 0 91 -38t32 -97q0 -61 -32 -98t-91 -37q-61 0 -93 37t-32 98zM811 1585q0 59 31.5 97t93.5 38q59 0 91 -38t32 -97q0 -61 -32 -98t-91 -37q-61 0 -93 37t-32 98z" />
<glyph unicode="&#xe5;" horiz-adv-x="1423" d="M113 375q0 100 38.5 170.5t105.5 118t152 74t176 38.5t183 15.5t170 3.5q35 0 80 -2t63 -7l-20 23v29q0 82 -28.5 138t-77 91t-113 49t-135.5 14q-53 0 -107.5 -6t-108 -21.5t-102.5 -40t-88 -61.5l-131 129q119 100 251 139.5t286 39.5q102 0 200.5 -22.5t174 -77 t121.5 -144.5t46 -225v-840h-188v115h-4q-86 -76 -195.5 -107t-222.5 -31q-98 0 -192.5 20.5t-168 67t-119.5 123t-46 187.5zM301 375q0 -66 33 -108t84 -66.5t110.5 -34.5t112.5 -10q49 0 121 8t138.5 32.5t113.5 67.5t47 113v227l20 19q-18 2 -59 4t-72 2q-57 0 -126.5 -1 t-141.5 -7.5t-140.5 -21.5t-121.5 -44t-86 -73t-33 -107zM475 1653q0 98 54.5 162.5t164.5 64.5q113 0 168.5 -64.5t55.5 -162.5t-55.5 -163t-166.5 -65q-113 0 -167 64.5t-54 163.5zM584 1653q0 -53 26.5 -88t85.5 -35t86 35t27 88t-27.5 88t-85.5 35q-59 0 -85.5 -35 t-26.5 -88z" />
<glyph unicode="&#xe6;" horiz-adv-x="2381" d="M113 375q0 100 38.5 170.5t105.5 118t152 74t176 38.5t183 15.5t170 3.5q35 0 77 -2t60 -7l-14 23v29q0 82 -28.5 138t-77 91t-113 49t-135.5 14q-53 0 -107.5 -6t-108 -21.5t-102.5 -40t-88 -61.5l-131 129q119 100 251 139.5t286 39.5t280.5 -51.5t198.5 -172.5h4 q78 102 199.5 164t275.5 62t266.5 -51.5t188 -141.5t112.5 -214t37 -269q0 -23 -1 -39t-3 -37h-1038l18 -20q25 -176 129.5 -277.5t300.5 -101.5q106 0 195.5 35.5t159.5 103.5l133 -131q-94 -92 -218 -140t-272 -48q-137 0 -265 46t-224 162h-4q-49 -66 -108.5 -107.5 t-127 -64t-144.5 -31t-161 -8.5q-98 0 -192.5 20.5t-168 67t-119.5 123t-46 187.5zM301 375q0 -66 33 -108t84 -66.5t110.5 -34.5t112.5 -10q49 0 121 8t138.5 32.5t113.5 67.5t47 113v227l14 19q-18 2 -56 4t-69 2q-57 0 -126.5 -1t-141.5 -7.5t-140.5 -21.5t-121.5 -44 t-86 -73t-33 -107zM1231 731h874l-30 21q-12 82 -42 151.5t-80 120.5t-122 78.5t-166 27.5q-96 0 -169 -28.5t-124 -79.5t-81.5 -121t-43.5 -149z" />
<glyph unicode="&#xe7;" horiz-adv-x="1265" d="M113 635q0 143 41 267t119.5 214t193.5 142.5t262 52.5q158 0 271.5 -45t187.5 -123l-133 -133q-53 57 -137 90t-189 30q-109 0 -188.5 -39.5t-133 -107.5t-80 -158t-26.5 -190q0 -96 23.5 -183t75 -151.5t132 -102.5t195.5 -38q106 0 191.5 33.5t152.5 105.5l133 -131 q-162 -168 -416 -186v-5l21 -20q41 -39 43 -86t-43 -92l-180 -180l-99 98l129 129q41 41 49.5 65.5t-20.5 53.5l-37 37q-137 12 -238.5 66t-168 140t-99 200t-32.5 247z" />
<glyph unicode="&#xe8;" d="M113 635q0 147 41 272t119.5 214t193.5 139.5t260 50.5q154 0 266.5 -51.5t188 -141.5t112.5 -214t37 -269q0 -23 -1 -39t-3 -37h-1042l22 -20q25 -176 129.5 -277.5t300.5 -101.5q106 0 195.5 35.5t159.5 103.5l133 -131q-94 -92 -218 -140t-272 -48q-160 0 -277.5 50 t-194.5 137t-113.5 207t-36.5 261zM287 731h872l-22 21q-12 82 -42 151.5t-80 120.5t-122 78.5t-166 27.5q-96 0 -169 -28.5t-124 -79.5t-81.5 -121t-43.5 -149zM455 1772l139 139l348 -406l-82 -82z" />
<glyph unicode="&#xe9;" d="M113 635q0 147 41 272t119.5 214t193.5 139.5t260 50.5q154 0 266.5 -51.5t188 -141.5t112.5 -214t37 -269q0 -23 -1 -39t-3 -37h-1042l22 -20q25 -176 129.5 -277.5t300.5 -101.5q106 0 195.5 35.5t159.5 103.5l133 -131q-94 -92 -218 -140t-272 -48q-160 0 -277.5 50 t-194.5 137t-113.5 207t-36.5 261zM287 731h872l-22 21q-12 82 -42 151.5t-80 120.5t-122 78.5t-166 27.5q-96 0 -169 -28.5t-124 -79.5t-81.5 -121t-43.5 -149zM516 1505l348 406l140 -139l-406 -349z" />
<glyph unicode="&#xea;" d="M113 635q0 147 41 272t119.5 214t193.5 139.5t260 50.5q154 0 266.5 -51.5t188 -141.5t112.5 -214t37 -269q0 -23 -1 -39t-3 -37h-1042l22 -20q25 -176 129.5 -277.5t300.5 -101.5q106 0 195.5 35.5t159.5 103.5l133 -131q-94 -92 -218 -140t-272 -48q-160 0 -277.5 50 t-194.5 137t-113.5 207t-36.5 261zM287 731h872l-22 21q-12 82 -42 151.5t-80 120.5t-122 78.5t-166 27.5q-96 0 -169 -28.5t-124 -79.5t-81.5 -121t-43.5 -149zM365 1505l366 365h4l367 -365l-80 -80l-287 234h-4l-287 -234z" />
<glyph unicode="&#xeb;" d="M113 635q0 147 41 272t119.5 214t193.5 139.5t260 50.5q154 0 266.5 -51.5t188 -141.5t112.5 -214t37 -269q0 -23 -1 -39t-3 -37h-1042l22 -20q25 -176 129.5 -277.5t300.5 -101.5q106 0 195.5 35.5t159.5 103.5l133 -131q-94 -92 -218 -140t-272 -48q-160 0 -277.5 50 t-194.5 137t-113.5 207t-36.5 261zM287 731h872l-22 21q-12 82 -42 151.5t-80 120.5t-122 78.5t-166 27.5q-96 0 -169 -28.5t-124 -79.5t-81.5 -121t-43.5 -149zM365 1585q0 59 31.5 97t92.5 38q59 0 91 -38t32 -97q0 -61 -31.5 -98t-91.5 -37q-61 0 -92.5 37t-31.5 98z M846 1585q0 59 31.5 97t93.5 38q59 0 91 -38t32 -97q0 -61 -32 -98t-91 -37q-61 0 -93 37t-32 98z" />
<glyph unicode="&#xec;" horiz-adv-x="557" d="M18 1772l140 139l348 -406l-82 -82zM184 0v1290h189v-1290h-189z" />
<glyph unicode="&#xed;" horiz-adv-x="557" d="M53 1505l348 406l140 -139l-406 -349zM184 0v1290h189v-1290h-189z" />
<glyph unicode="&#xee;" horiz-adv-x="557" d="M-88 1505l367 365h4l366 -365l-80 -80l-286 234h-4l-287 -234zM184 0v1290h189v-1290h-189z" />
<glyph unicode="&#xef;" horiz-adv-x="557" d="M-84 1585q0 59 32 97t93 38q59 0 91 -38t32 -97q0 -61 -32 -98t-91 -37q-61 0 -93 37t-32 98zM184 0v1290h189v-1290h-189zM397 1585q0 59 32 97t93 38q59 0 91 -38t32 -97q0 -61 -31.5 -98t-91.5 -37q-61 0 -93 37t-32 98z" />
<glyph unicode="&#xf0;" horiz-adv-x="1382" d="M113 612q0 137 35.5 253t108.5 200t180.5 132t252.5 48q31 0 59.5 -3t57.5 -7l-113 172v25l-178 -109l-86 131l176 107l-16 8l-109 164h213l45 -70l2 -21l152 93l86 -131l-152 -93l19 -10l325 -495q53 -80 76 -178.5t23 -215.5q0 -137 -37 -252.5t-108.5 -200.5 t-181 -132t-253.5 -47q-145 0 -252.5 47t-180.5 132t-108.5 200.5t-35.5 252.5zM295 612q0 -96 22.5 -180t71.5 -145.5t124 -97t179 -35.5t179 35.5t123 97t70.5 145.5t22.5 180t-22.5 180.5t-70.5 145.5t-123.5 96t-180.5 35q-104 0 -180 -35t-123 -96t-69.5 -145 t-22.5 -181z" />
<glyph unicode="&#xf1;" horiz-adv-x="1490" d="M184 0v1290h189v-162h4q66 84 176.5 133.5t234.5 49.5q256 0 392.5 -126t136.5 -362v-823h-189v782q0 76 -14 140.5t-54 110.5t-110.5 71.5t-181.5 25.5q-82 0 -153.5 -22.5t-126 -68.5t-85 -113.5t-30.5 -159.5v-766h-189zM291 1556q12 39 38.5 78t64.5 71t86 51.5 t102 19.5q53 0 105 -23.5t101.5 -53.5t97.5 -53.5t91 -23.5q66 0 113 44t63 110l100 -97q-14 -47 -42.5 -87t-67.5 -68.5t-86 -46t-99 -17.5q-53 0 -103 23.5t-99 53.5t-97.5 53.5t-95.5 23.5q-59 0 -106 -42t-68 -114z" />
<glyph unicode="&#xf2;" d="M113 645q0 143 37.5 266t113.5 211t190.5 138.5t266.5 50.5q154 0 267.5 -49.5t190 -137.5t114.5 -211t38 -268q0 -143 -39 -265t-115.5 -211t-190.5 -139t-265 -50q-152 0 -266.5 49t-190.5 138t-113.5 211t-37.5 267zM301 645q0 -102 24.5 -190t76 -153.5t131 -103.5 t190.5 -38t190.5 38t131 103.5t75 153.5t23.5 190t-24.5 190.5t-76 154t-131.5 103t-190 37.5q-111 0 -190.5 -36.5t-131 -102t-75 -154.5t-23.5 -192zM440 1772l140 139l348 -406l-82 -82z" />
<glyph unicode="&#xf3;" d="M113 645q0 143 37.5 266t113.5 211t190.5 138.5t266.5 50.5q154 0 267.5 -49.5t190 -137.5t114.5 -211t38 -268q0 -143 -39 -265t-115.5 -211t-190.5 -139t-265 -50q-152 0 -266.5 49t-190.5 138t-113.5 211t-37.5 267zM301 645q0 -102 24.5 -190t76 -153.5t131 -103.5 t190.5 -38t190.5 38t131 103.5t75 153.5t23.5 190t-24.5 190.5t-76 154t-131.5 103t-190 37.5q-111 0 -190.5 -36.5t-131 -102t-75 -154.5t-23.5 -192zM516 1505l348 406l140 -139l-406 -349z" />
<glyph unicode="&#xf4;" d="M113 645q0 143 37.5 266t113.5 211t190.5 138.5t266.5 50.5q154 0 267.5 -49.5t190 -137.5t114.5 -211t38 -268q0 -143 -39 -265t-115.5 -211t-190.5 -139t-265 -50q-152 0 -266.5 49t-190.5 138t-113.5 211t-37.5 267zM301 645q0 -102 24.5 -190t76 -153.5t131 -103.5 t190.5 -38t190.5 38t131 103.5t75 153.5t23.5 190t-24.5 190.5t-76 154t-131.5 103t-190 37.5q-111 0 -190.5 -36.5t-131 -102t-75 -154.5t-23.5 -192zM356 1505l367 365h4l367 -365l-80 -80l-287 234h-4l-287 -234z" />
<glyph unicode="&#xf5;" d="M113 645q0 143 37.5 266t113.5 211t190.5 138.5t266.5 50.5q154 0 267.5 -49.5t190 -137.5t114.5 -211t38 -268q0 -143 -39 -265t-115.5 -211t-190.5 -139t-265 -50q-152 0 -266.5 49t-190.5 138t-113.5 211t-37.5 267zM244 1556q12 39 38.5 78t64.5 71t86 51.5t102 19.5 q53 0 105 -23.5t101.5 -53.5t97.5 -53.5t91 -23.5q66 0 113 44t63 110l100 -97q-14 -47 -42.5 -87t-67.5 -68.5t-86 -46t-99 -17.5q-53 0 -103 23.5t-99.5 53.5t-97.5 53.5t-95 23.5q-59 0 -106.5 -42t-67.5 -114zM301 645q0 -102 24.5 -190t76 -153.5t131 -103.5t190.5 -38 t190.5 38t131 103.5t75 153.5t23.5 190t-24.5 190.5t-76 154t-131.5 103t-190 37.5q-111 0 -190.5 -36.5t-131 -102t-75 -154.5t-23.5 -192z" />
<glyph unicode="&#xf6;" d="M113 645q0 143 37.5 266t113.5 211t190.5 138.5t266.5 50.5q154 0 267.5 -49.5t190 -137.5t114.5 -211t38 -268q0 -143 -39 -265t-115.5 -211t-190.5 -139t-265 -50q-152 0 -266.5 49t-190.5 138t-113.5 211t-37.5 267zM301 645q0 -102 24.5 -190t76 -153.5t131 -103.5 t190.5 -38t190.5 38t131 103.5t75 153.5t23.5 190t-24.5 190.5t-76 154t-131.5 103t-190 37.5q-111 0 -190.5 -36.5t-131 -102t-75 -154.5t-23.5 -192zM358 1585q0 59 32 97t93 38q59 0 91 -38t32 -97q0 -61 -31.5 -98t-91.5 -37q-61 0 -93 37t-32 98zM840 1585 q0 59 31.5 97t93.5 38q59 0 90.5 -38t31.5 -97q0 -61 -31.5 -98t-90.5 -37q-61 0 -93 37t-32 98z" />
<glyph unicode="&#xf7;" horiz-adv-x="1382" d="M184 737v185h1014v-185h-1014zM539 385q0 74 38.5 121t114.5 47q78 0 117 -46t39 -122t-40 -123t-116 -47t-114.5 47t-38.5 123zM539 1276q0 74 38.5 121t114.5 47q78 0 117 -46t39 -122t-40 -123t-116 -47t-114.5 47t-38.5 123z" />
<glyph unicode="&#xf8;" d="M113 645q0 143 37.5 266t113.5 211t190.5 138.5t266.5 50.5q172 0 299 -64v10l86 148l86 -51l-86 -150l-8 -4q117 -88 175 -231.5t58 -323.5q0 -143 -39 -265t-115.5 -211t-190.5 -139t-265 -50q-84 0 -155.5 14t-137.5 47v-12l-84 -148l-86 49l84 150l12 4 q-123 92 -182 236.5t-59 324.5zM301 645q0 -123 34 -223t114 -172l2 14l469 815l10 6q-41 20 -95.5 32.5t-113.5 12.5q-111 0 -190.5 -36.5t-131 -102t-75 -154.5t-23.5 -192zM522 201q86 -41 201 -41q111 0 190.5 38t131 103.5t75 153.5t23.5 190q0 121 -32 219.5 t-110 171.5v-12l-469 -815z" />
<glyph unicode="&#xf9;" horiz-adv-x="1474" d="M174 487v803h188v-792q0 -72 13.5 -133.5t51.5 -107.5t107.5 -71.5t180.5 -25.5q82 0 152.5 22.5t122.5 68.5t82 113.5t30 159.5v766h188v-1290h-188v162h-4q-78 -88 -178.5 -135t-225.5 -47q-137 0 -235.5 34.5t-162 101t-93 161t-29.5 210.5zM455 1772l139 139 l348 -406l-82 -82z" />
<glyph unicode="&#xfa;" horiz-adv-x="1474" d="M174 487v803h188v-792q0 -72 13.5 -133.5t51.5 -107.5t107.5 -71.5t180.5 -25.5q82 0 152.5 22.5t122.5 68.5t82 113.5t30 159.5v766h188v-1290h-188v162h-4q-78 -88 -178.5 -135t-225.5 -47q-137 0 -235.5 34.5t-162 101t-93 161t-29.5 210.5zM532 1505l349 406 l139 -139l-406 -349z" />
<glyph unicode="&#xfb;" horiz-adv-x="1474" d="M174 487v803h188v-792q0 -72 13.5 -133.5t51.5 -107.5t107.5 -71.5t180.5 -25.5q82 0 152.5 22.5t122.5 68.5t82 113.5t30 159.5v766h188v-1290h-188v162h-4q-78 -88 -178.5 -135t-225.5 -47q-137 0 -235.5 34.5t-162 101t-93 161t-29.5 210.5zM358 1505l367 365h4 l367 -365l-80 -80l-287 234h-4l-287 -234z" />
<glyph unicode="&#xfc;" horiz-adv-x="1474" d="M174 487v803h188v-792q0 -72 13.5 -133.5t51.5 -107.5t107.5 -71.5t180.5 -25.5q82 0 152.5 22.5t122.5 68.5t82 113.5t30 159.5v766h188v-1290h-188v162h-4q-78 -88 -178.5 -135t-225.5 -47q-137 0 -235.5 34.5t-162 101t-93 161t-29.5 210.5zM369 1585q0 59 31.5 97 t93.5 38q59 0 90.5 -38t31.5 -97q0 -61 -31.5 -98t-90.5 -37q-61 0 -93 37t-32 98zM850 1585q0 59 31.5 97t93.5 38q59 0 91 -38t32 -97q0 -61 -32 -98t-91 -37q-61 0 -93 37t-32 98z" />
<glyph unicode="&#xfd;" horiz-adv-x="1355" d="M31 1290h211l401 -923l55 -164h4l54 164l358 923h211l-584 -1429q-57 -141 -153 -221t-219 -80q-145 0 -242 51v178q45 -25 102.5 -38t114.5 -13q86 0 148.5 66.5t113.5 197.5zM465 1505l348 406l139 -139l-405 -349z" />
<glyph unicode="&#xfe;" horiz-adv-x="1490" d="M184 -430v2150h189v-587h4q66 84 170 131t233 47q152 0 264.5 -50.5t186.5 -139.5t110.5 -211t36.5 -265q0 -145 -35.5 -268t-109.5 -211t-186.5 -137t-266.5 -49q-129 0 -227 39.5t-176 130.5h-4v-580h-189zM356 645q0 -102 22.5 -191t72 -155t128 -102.5t193.5 -36.5 q113 0 192.5 36.5t130 102.5t73 155t22.5 191t-22.5 190.5t-71.5 154t-129 103t-193 37.5q-115 0 -193.5 -37.5t-129 -103t-73 -155t-22.5 -189.5z" />
<glyph unicode="&#xff;" horiz-adv-x="1355" d="M31 1290h211l401 -923l55 -164h4l54 164l358 923h211l-584 -1429q-57 -141 -153 -221t-219 -80q-145 0 -242 51v178q45 -25 102.5 -38t114.5 -13q86 0 148.5 66.5t113.5 197.5zM305 1585q0 59 32 97t93 38q59 0 91 -38t32 -97q0 -61 -32 -98t-91 -37q-61 0 -93 37t-32 98 zM786 1585q0 59 32 97t93 38q59 0 91 -38t32 -97q0 -61 -31.5 -98t-91.5 -37q-61 0 -93 37t-32 98z" />
<glyph unicode="&#x152;" horiz-adv-x="2236" d="M113 819q0 188 40 347t119.5 272.5t197.5 177t271 63.5q123 0 227.5 -42t178.5 -124h4v146h942v-184h-764l17 -21v-512l-17 -20h686v-185h-686l17 -20v-512l-17 -21h764v-184h-942v141h-4q-74 -82 -179.5 -121.5t-226.5 -39.5q-154 0 -271.5 60t-197 171t-119.5 265.5 t-40 342.5zM313 819q0 -137 24.5 -256t77 -208t133.5 -140t193 -51q113 0 195 51t134 140t76.5 208t24.5 256q0 135 -24.5 258t-76.5 215t-133 147.5t-196 55.5q-113 0 -193.5 -53t-133 -145.5t-77 -215.5t-24.5 -262z" />
<glyph unicode="&#x153;" horiz-adv-x="2461" d="M113 645q0 143 37.5 266t113.5 211t190.5 138.5t266.5 50.5q186 0 312 -68.5t200 -198.5h4q82 131 209 199t299 68q154 0 266.5 -51.5t188 -141.5t112.5 -214t37 -269q0 -23 -1 -39t-3 -37h-1042l22 -20q25 -176 129.5 -277.5t300.5 -101.5q106 0 195.5 35.5t158.5 103.5 l134 -131q-94 -92 -218 -140t-272 -48q-186 0 -317 67.5t-205 190.5h-4q-72 -123 -199 -190.5t-307 -67.5q-152 0 -266.5 49t-190.5 138t-113.5 211t-37.5 267zM301 645q0 -102 24.5 -190t76 -153.5t131 -103.5t190.5 -38t190.5 38t131 103.5t75 153.5t23.5 190t-24.5 190.5 t-76 154t-131.5 103t-190 37.5q-111 0 -190.5 -36.5t-131 -102t-75 -154.5t-23.5 -192zM1305 731h872l-23 21q-12 82 -41.5 151.5t-80 120.5t-122 78.5t-165.5 27.5q-96 0 -169 -28.5t-124 -79.5t-82 -121t-43 -149z" />
<glyph unicode="&#x178;" horiz-adv-x="1640" d="M31 1659h245l431 -608l112 -191h4l111 191l432 608h244l-690 -963v-696h-197v696zM455 1978q0 59 31.5 97.5t91.5 38.5q61 0 91.5 -38.5t30.5 -97.5t-31.5 -97t-90.5 -38q-61 0 -92 38t-31 97zM936 1978q0 59 31.5 97.5t91.5 38.5q61 0 92 -38.5t31 -97.5t-32 -97 t-91 -38q-61 0 -92 38t-31 97z" />
<glyph unicode="&#x2c6;" horiz-adv-x="1423" d="M319 1505l367 365h4l367 -365l-80 -80l-287 234h-4l-287 -234z" />
<glyph unicode="&#x2dc;" horiz-adv-x="1423" d="M205 1556q12 39 38.5 78t64.5 71t86 51.5t102 19.5q53 0 105 -23.5t101.5 -53.5t97.5 -53.5t91 -23.5q66 0 113 44t63 110l100 -97q-14 -47 -42.5 -87t-67.5 -68.5t-86 -46t-99 -17.5q-53 0 -103 23.5t-99 53.5t-97.5 53.5t-95.5 23.5q-59 0 -106 -42t-68 -114z" />
<glyph unicode="&#x2000;" horiz-adv-x="1139" />
<glyph unicode="&#x2001;" horiz-adv-x="2279" />
<glyph unicode="&#x2002;" horiz-adv-x="1139" />
<glyph unicode="&#x2003;" horiz-adv-x="2279" />
<glyph unicode="&#x2004;" horiz-adv-x="759" />
<glyph unicode="&#x2005;" horiz-adv-x="569" />
<glyph unicode="&#x2006;" horiz-adv-x="379" />
<glyph unicode="&#x2007;" horiz-adv-x="379" />
<glyph unicode="&#x2008;" horiz-adv-x="284" />
<glyph unicode="&#x2009;" horiz-adv-x="455" />
<glyph unicode="&#x200a;" horiz-adv-x="126" />
<glyph unicode="&#x2010;" horiz-adv-x="808" d="M61 573v185h687v-185h-687z" />
<glyph unicode="&#x2011;" horiz-adv-x="808" d="M61 573v185h687v-185h-687z" />
<glyph unicode="&#x2012;" horiz-adv-x="808" d="M61 573v185h687v-185h-687z" />
<glyph unicode="&#x2013;" horiz-adv-x="1257" d="M61 573v185h1135v-185h-1135z" />
<glyph unicode="&#x2014;" horiz-adv-x="1820" d="M61 573v185h1698v-185h-1698z" />
<glyph unicode="&#x2018;" horiz-adv-x="481" d="M92 1217q0 29 6 53t17 47l159 373l115 -48l-106 -247l-25 -21q61 0 96 -45t35 -112q0 -72 -37 -117t-108 -45q-74 0 -113 45t-39 117z" />
<glyph unicode="&#x2019;" horiz-adv-x="481" d="M92 1092l107 249l26 19q-61 0 -97 45t-36 115q0 72 38 115.5t110 43.5t110.5 -43.5t38.5 -115.5q0 -31 -6 -55.5t-16 -47.5l-160 -373z" />
<glyph unicode="&#x201a;" horiz-adv-x="481" d="M92 145q0 72 38 116t110 44t110.5 -44t38.5 -116q0 -31 -6 -55t-16 -47l-160 -373l-115 47l107 250l26 19q-61 0 -97 45t-36 114z" />
<glyph unicode="&#x201c;" horiz-adv-x="860" d="M92 1217q0 29 6 53t17 47l159 373l115 -48l-106 -247l-25 -21q61 0 96 -45t35 -112q0 -72 -37 -117t-108 -45q-74 0 -113 45t-39 117zM471 1217q0 29 6 53t17 47l159 373l115 -48l-106 -247l-25 -21q61 0 96 -45t35 -112q0 -72 -37 -117t-108 -45q-74 0 -113 45t-39 117z " />
<glyph unicode="&#x201d;" horiz-adv-x="860" d="M92 1092l107 249l26 19q-61 0 -97 45t-36 115q0 72 38 115.5t110 43.5t110.5 -43.5t38.5 -115.5q0 -31 -6 -55.5t-16 -47.5l-160 -373zM471 1092l107 249l26 19q-61 0 -97 45t-36 115q0 72 38 115.5t109 43.5q72 0 111 -43.5t39 -115.5q0 -31 -6 -55.5t-17 -47.5 l-159 -373z" />
<glyph unicode="&#x201e;" horiz-adv-x="860" d="M92 145q0 72 38 116t110 44t110.5 -44t38.5 -116q0 -31 -6 -55t-16 -47l-160 -373l-115 47l107 250l26 19q-61 0 -97 45t-36 114zM471 145q0 72 38 116t109 44q72 0 111 -44t39 -116q0 -31 -6 -55t-17 -47l-159 -373l-115 47l107 250l26 19q-61 0 -97 45t-36 114z" />
<glyph unicode="&#x2022;" horiz-adv-x="737" d="M0 829q0 57 21.5 107.5t59.5 88.5t88 59.5t107 21.5t107.5 -21.5t88.5 -59.5t59.5 -88.5t21.5 -107.5t-21.5 -108t-59.5 -89t-88 -59.5t-108 -21.5q-57 0 -107 21.5t-88 59.5t-59.5 89t-21.5 108z" />
<glyph unicode="&#x2026;" horiz-adv-x="1726" d="M123 141q0 72 38 116t109 44q72 0 109 -44t37 -116t-37 -116.5t-109 -44.5t-109.5 45t-37.5 116zM707 141q0 72 37.5 116t109.5 44t108.5 -44t36.5 -116t-36.5 -116.5t-108.5 -44.5t-109.5 45t-37.5 116zM1290 141q0 72 38 116t110 44t108.5 -44t36.5 -116t-37 -116.5 t-108 -44.5q-72 0 -110 45t-38 116z" />
<glyph unicode="&#x202f;" horiz-adv-x="455" />
<glyph unicode="&#x2039;" horiz-adv-x="765" d="M113 522l413 414l127 -127l-186 -188l-121 -97v-4l121 -98l186 -186l-127 -127z" />
<glyph unicode="&#x203a;" horiz-adv-x="765" d="M113 236l186 186l121 98v4l-121 97l-186 188l127 127l413 -414l-413 -413z" />
<glyph unicode="&#x205f;" horiz-adv-x="569" />
<glyph unicode="&#x20ac;" horiz-adv-x="1533" d="M82 553v184h145l-10 21q-2 16 -2 30.5v30.5v42.5t2 39.5l12 21h-147v184h174l-8 20q29 125 85 227.5t137 175.5t184.5 111.5t226.5 38.5q168 0 298 -66.5t212 -187.5l-140 -141q-59 98 -146 154.5t-224 56.5q-84 0 -153 -27.5t-123 -77t-92 -117t-58 -147.5l-15 -20h619 v-184h-653l14 -21q-2 -20 -3 -40.5t-1 -41.5q0 -16 1 -30.5t1 -30.5l-12 -21h653v-184h-623l13 -21q20 -80 57 -147.5t91 -116.5t124 -76.5t158 -27.5q135 0 224 55t148 154l138 -140q-84 -121 -214.5 -187t-295.5 -66q-127 0 -232.5 38.5t-186.5 110.5t-136.5 174.5 t-81.5 228.5l8 21h-168z" />
<glyph unicode="&#x2122;" horiz-adv-x="1703" d="M61 1565v92h693v-92h-303l6 -11v-727h-99v727l7 11h-304zM829 827v830h89l278 -553l39 -96h2l41 96l278 553h86v-830h-96v611h-2l-55 -131l-252 -490h-2l-254 496l-51 125h-2v-611h-99z" />
<glyph unicode="&#x25fc;" horiz-adv-x="1290" d="M0 0v1290h1290v-1290h-1290z" />
<glyph unicode="&#xfb01;" horiz-adv-x="1400" d="M61 1118v172h164l-10 21v16q0 193 110.5 298.5t301.5 105.5q41 0 89 -8.5t87 -24.5v-176q-35 14 -85 23t-87 9q-121 0 -174.5 -63.5t-53.5 -179.5l-10 -21h824v-1290h-189v1118h-635l10 -20v-1098h-188v1098l10 20h-164zM999 1597q0 59 31 97.5t92 38.5t92 -38.5 t31 -97.5t-30.5 -97t-92.5 -38q-61 0 -92 38t-31 97z" />
<glyph unicode="&#xfb02;" horiz-adv-x="1400" d="M61 1118v172h164l-10 21v16q0 186 107.5 288.5t304.5 102.5h590v-1718h-189v1542h-397q-227 0 -228 -219v-12l-10 -21h410v-172h-410l10 -20v-1098h-188v1098l10 20h-164z" />
</font>
</defs>
</svg>
