<svg xmlns="http://www.w3.org/2000/svg" xmlns:xlink="http://www.w3.org/1999/xlink" width="100" height="100" viewBox="0 0 100 100"><g transform="translate(50 50) scale(0.69 0.69) rotate(-90) translate(-50 -50)" style="fill:#000000"><svg fill="#000000" xmlns="http://www.w3.org/2000/svg" data-name="Layer 1" viewBox="0 0 100 100" x="0px" y="0px"><title>17</title><g data-name="Group"><path data-name="Path" d="M90.7,12.5v-.7l-.2-.4-.2-.3-.5-.6h0L89,9.9l-.3-.2-.4-.2H65.1a4,4,0,1,0,0,8H77.1L41.2,53.1a4,4,0,1,0,5.7,5.7L82.8,22.9V34.9a4,4,0,0,0,8,0V13.2h0A4,4,0,0,0,90.7,12.5Z"></path><path data-name="Path" d="M21.2,90.8H68.6a12,12,0,0,0,12-12V50.5a4,4,0,1,0-8,0V78.8a4,4,0,0,1-4,4H21.2a4,4,0,0,1-4-4V31.4a4,4,0,0,1,4-4H49.5a4,4,0,0,0,0-8H21.2a12,12,0,0,0-12,12V78.8A12,12,0,0,0,21.2,90.8Z"></path></g></svg></g></svg>