<svg xmlns="http://www.w3.org/2000/svg" xmlns:xlink="http://www.w3.org/1999/xlink" width="100" height="100" viewBox="0 0 100 100"><g transform="translate(50 50) scale(0.69 0.69) rotate(-90) translate(-50 -50)" style="fill:#000000"><svg fill="#000000" xmlns="http://www.w3.org/2000/svg" viewBox="0 0 24 24" x="0px" y="0px"><title>user, interface, ui, web, app, In, Pop</title><g><path d="M22,9V21a1,1,0,0,1-1,1H3a1,1,0,0,1-1-1V3A1,1,0,0,1,3,2H15a1,1,0,0,1,0,2H4V20H20V9a1,1,0,0,1,2,0ZM10,10a1,1,0,0,0-2,0v5a1,1,0,0,0,.08.38,1,1,0,0,0,.54.54A1,1,0,0,0,9,16h5a1,1,0,0,0,0-2H11.41L21.71,3.71a1,1,0,1,0-1.42-1.42L10,12.59Z"></path></g></svg></g></svg>